<svg xmlns="http://www.w3.org/2000/svg" xmlns:xlink="http://www.w3.org/1999/xlink" width="1920" zoomAndPan="magnify" viewBox="0 0 1440 809.999993" height="1080" preserveAspectRatio="xMidYMid meet" version="1.0"><defs><g/></defs><rect x="-144" width="1728" fill="#ffffff" y="-80.999999" height="971.999992" fill-opacity="1"/><rect x="-144" width="1728" fill="#ffffff" y="-80.999999" height="971.999992" fill-opacity="1"/><g fill="#0e454c" fill-opacity="0.4"><g transform="translate(96.632821, 471.29522)"><g><path d="M 53.21875 2.625 C 37.582031 2.625 25.582031 -1.679688 17.21875 -10.296875 C 8.863281 -18.921875 4.6875 -31.4375 4.6875 -47.84375 C 4.6875 -55.476562 5.332031 -63.335938 6.625 -71.421875 C 7.925781 -79.515625 9.910156 -87.429688 12.578125 -95.171875 C 15.253906 -102.921875 18.648438 -110.25 22.765625 -117.15625 C 26.890625 -124.0625 31.8125 -130.085938 37.53125 -135.234375 C 43.257812 -140.390625 49.804688 -144.492188 57.171875 -147.546875 C 64.535156 -150.597656 72.757812 -152.125 81.84375 -152.125 C 97.488281 -152.125 109.488281 -147.832031 117.84375 -139.25 C 126.195312 -130.664062 130.375 -118.171875 130.375 -101.765625 C 130.375 -94.128906 129.722656 -86.25 128.421875 -78.125 C 127.128906 -70 125.144531 -62.0625 122.46875 -54.3125 C 119.800781 -46.5625 116.40625 -39.253906 112.28125 -32.390625 C 108.164062 -25.523438 103.242188 -19.5 97.515625 -14.3125 C 91.796875 -9.125 85.253906 -5.003906 77.890625 -1.953125 C 70.523438 1.097656 62.300781 2.625 53.21875 2.625 Z M 57.234375 -22.65625 C 62.035156 -22.65625 66.441406 -23.722656 70.453125 -25.859375 C 74.460938 -28.003906 78.085938 -30.90625 81.328125 -34.5625 C 84.566406 -38.226562 87.40625 -42.519531 89.84375 -47.4375 C 92.289062 -52.363281 94.332031 -57.671875 95.96875 -63.359375 C 97.613281 -69.046875 98.835938 -74.957031 99.640625 -81.09375 C 100.441406 -87.238281 100.84375 -93.328125 100.84375 -99.359375 C 100.84375 -108.816406 99.03125 -115.757812 95.40625 -120.1875 C 91.78125 -124.613281 85.921875 -126.828125 77.828125 -126.828125 C 73.023438 -126.828125 68.617188 -125.773438 64.609375 -123.671875 C 60.609375 -121.578125 56.984375 -118.695312 53.734375 -115.03125 C 50.492188 -111.375 47.648438 -107.0625 45.203125 -102.09375 C 42.765625 -97.132812 40.722656 -91.832031 39.078125 -86.1875 C 37.441406 -80.539062 36.222656 -74.625 35.421875 -68.4375 C 34.617188 -62.257812 34.21875 -56.160156 34.21875 -50.140625 C 34.21875 -40.671875 36.007812 -33.722656 39.59375 -29.296875 C 43.1875 -24.867188 49.066406 -22.65625 57.234375 -22.65625 Z M 57.234375 -22.65625 "/></g></g></g><g fill="#0e454c" fill-opacity="0.4"><g transform="translate(259.280363, 471.29522)"><g><path d="M 8.921875 -27.015625 C 16.710938 -24.265625 24.15625 -22.203125 31.25 -20.828125 C 38.34375 -19.453125 44.941406 -18.765625 51.046875 -18.765625 C 59.972656 -18.765625 66.476562 -20.175781 70.5625 -23 C 74.644531 -25.832031 76.6875 -29.421875 76.6875 -33.765625 C 76.6875 -35.296875 76.378906 -36.6875 75.765625 -37.9375 C 75.160156 -39.195312 74.054688 -40.398438 72.453125 -41.546875 C 70.847656 -42.691406 68.65625 -43.835938 65.875 -44.984375 C 63.09375 -46.128906 59.488281 -47.390625 55.0625 -48.765625 C 44.375 -52.046875 36.359375 -56.46875 31.015625 -62.03125 C 25.671875 -67.601562 23 -74.664062 23 -83.21875 C 23 -88.101562 24.21875 -92.695312 26.65625 -97 C 29.101562 -101.3125 32.671875 -105.085938 37.359375 -108.328125 C 42.054688 -111.578125 47.878906 -114.132812 54.828125 -116 C 61.773438 -117.875 69.75 -118.8125 78.75 -118.8125 C 86.382812 -118.8125 92.910156 -118.488281 98.328125 -117.84375 C 103.742188 -117.195312 108.472656 -116.453125 112.515625 -115.609375 L 112.515625 -92.828125 C 105.117188 -95.046875 98.59375 -96.492188 92.9375 -97.171875 C 87.289062 -97.859375 82.179688 -98.203125 77.609375 -98.203125 C 72.878906 -98.203125 68.910156 -97.800781 65.703125 -97 C 62.492188 -96.207031 59.9375 -95.082031 58.03125 -93.625 C 56.125 -92.175781 54.769531 -90.671875 53.96875 -89.109375 C 53.164062 -87.546875 52.765625 -86.039062 52.765625 -84.59375 C 52.765625 -82.832031 53.109375 -81.265625 53.796875 -79.890625 C 54.484375 -78.515625 55.703125 -77.21875 57.453125 -76 C 59.210938 -74.78125 61.578125 -73.5625 64.546875 -72.34375 C 67.523438 -71.125 71.269531 -69.828125 75.78125 -68.453125 C 86.15625 -65.171875 93.9375 -60.972656 99.125 -55.859375 C 104.3125 -50.742188 106.90625 -44.410156 106.90625 -36.859375 C 106.90625 -30.066406 105.453125 -24.207031 102.546875 -19.28125 C 99.648438 -14.363281 95.679688 -10.265625 90.640625 -6.984375 C 85.609375 -3.703125 79.695312 -1.28125 72.90625 0.28125 C 66.113281 1.84375 58.828125 2.625 51.046875 2.625 C 42.273438 2.625 34.4375 2.222656 27.53125 1.421875 C 20.625 0.628906 14.421875 -0.453125 8.921875 -1.828125 Z M 8.921875 -27.015625 "/></g></g></g><g fill="#0e454c" fill-opacity="0.4"><g transform="translate(421.927905, 471.29522)"><g><path d="M 66.15625 -63.296875 L 70.734375 -86.53125 L 123.96875 -86.53125 L 107.828125 -6.75 C 100.421875 -3.625 93.070312 -1.28125 85.78125 0.28125 C 78.5 1.84375 70.472656 2.625 61.703125 2.625 C 52.992188 2.625 45.222656 1.40625 38.390625 -1.03125 C 31.566406 -3.46875 25.769531 -7.03125 21 -11.71875 C 16.226562 -16.414062 12.582031 -22.179688 10.0625 -29.015625 C 7.550781 -35.847656 6.296875 -43.6875 6.296875 -52.53125 C 6.296875 -58.414062 6.847656 -64.960938 7.953125 -72.171875 C 9.054688 -79.378906 10.941406 -86.679688 13.609375 -94.078125 C 16.285156 -101.484375 19.835938 -108.660156 24.265625 -115.609375 C 28.691406 -122.554688 34.203125 -128.738281 40.796875 -134.15625 C 47.398438 -139.570312 55.222656 -143.921875 64.265625 -147.203125 C 73.304688 -150.484375 83.78125 -152.125 95.6875 -152.125 C 102.476562 -152.125 109.269531 -151.492188 116.0625 -150.234375 C 122.851562 -148.972656 129.265625 -147.351562 135.296875 -145.375 L 129.921875 -119.390625 C 124.878906 -121.296875 119.171875 -123.03125 112.796875 -124.59375 C 106.429688 -126.15625 99.773438 -126.9375 92.828125 -126.9375 C 85.878906 -126.9375 79.640625 -125.769531 74.109375 -123.4375 C 68.578125 -121.113281 63.691406 -118.023438 59.453125 -114.171875 C 55.222656 -110.316406 51.617188 -105.890625 48.640625 -100.890625 C 45.671875 -95.898438 43.226562 -90.675781 41.3125 -85.21875 C 39.40625 -79.757812 38.015625 -74.265625 37.140625 -68.734375 C 36.265625 -63.203125 35.828125 -58.03125 35.828125 -53.21875 C 35.828125 -48.257812 36.414062 -43.890625 37.59375 -40.109375 C 38.78125 -36.335938 40.648438 -33.132812 43.203125 -30.5 C 45.765625 -27.875 49.046875 -25.890625 53.046875 -24.546875 C 57.054688 -23.210938 61.882812 -22.546875 67.53125 -22.546875 C 71.039062 -22.546875 74 -22.753906 76.40625 -23.171875 C 78.8125 -23.597656 81.234375 -24.226562 83.671875 -25.0625 L 91.453125 -63.296875 Z M 66.15625 -63.296875 "/></g></g></g><g fill="#0e454c" fill-opacity="0.4"><g transform="translate(584.575447, 471.29522)"><g><path d="M 41.4375 2.625 C 30.144531 2.625 21.578125 -0.878906 15.734375 -7.890625 C 9.898438 -14.910156 6.984375 -24.867188 6.984375 -37.765625 C 6.984375 -49.441406 8.546875 -60.222656 11.671875 -70.109375 C 14.804688 -79.992188 19.347656 -88.503906 25.296875 -95.640625 C 31.242188 -102.773438 38.546875 -108.34375 47.203125 -112.34375 C 55.867188 -116.351562 65.695312 -118.359375 76.6875 -118.359375 C 82.5625 -118.359375 87.804688 -117.957031 92.421875 -117.15625 C 97.046875 -116.351562 101.070312 -115.414062 104.5 -114.34375 L 124.421875 -118.578125 L 111.609375 -54.140625 C 111.148438 -51.703125 110.691406 -49.085938 110.234375 -46.296875 C 109.773438 -43.515625 109.296875 -40.082031 108.796875 -36 C 108.296875 -31.914062 107.738281 -26.972656 107.125 -21.171875 C 106.519531 -15.367188 105.835938 -8.3125 105.078125 0 L 82.296875 0 L 83.21875 -21.0625 C 81.457031 -18.394531 79.238281 -15.664062 76.5625 -12.875 C 73.894531 -10.09375 70.785156 -7.554688 67.234375 -5.265625 C 63.691406 -2.972656 59.765625 -1.085938 55.453125 0.390625 C 51.140625 1.878906 46.46875 2.625 41.4375 2.625 Z M 91.6875 -93.96875 C 89.238281 -94.8125 86.738281 -95.460938 84.1875 -95.921875 C 81.632812 -96.378906 78.90625 -96.609375 76 -96.609375 C 70.582031 -96.609375 65.832031 -95.632812 61.75 -93.6875 C 57.664062 -91.738281 54.132812 -89.179688 51.15625 -86.015625 C 48.1875 -82.847656 45.726562 -79.242188 43.78125 -75.203125 C 41.832031 -71.160156 40.285156 -67.039062 39.140625 -62.84375 C 37.992188 -58.644531 37.191406 -54.503906 36.734375 -50.421875 C 36.285156 -46.335938 36.0625 -42.734375 36.0625 -39.609375 C 36.0625 -33.503906 37.109375 -28.847656 39.203125 -25.640625 C 41.304688 -22.429688 44.492188 -20.828125 48.765625 -20.828125 C 52.273438 -20.828125 56.015625 -22.238281 59.984375 -25.0625 C 63.953125 -27.882812 67.726562 -31.507812 71.3125 -35.9375 C 74.894531 -40.363281 78.039062 -45.285156 80.75 -50.703125 C 83.457031 -56.117188 85.3125 -61.425781 86.3125 -66.625 Z M 91.6875 -93.96875 "/></g></g></g><g fill="#0e454c" fill-opacity="0.4"><g transform="translate(747.222989, 471.29522)"><g><path d="M 57 -42.234375 C 60.132812 -42.234375 63.015625 -41.640625 65.640625 -40.453125 C 68.273438 -39.273438 70.546875 -37.710938 72.453125 -35.765625 C 74.359375 -33.816406 75.84375 -31.546875 76.90625 -28.953125 C 77.976562 -26.359375 78.515625 -23.648438 78.515625 -20.828125 C 78.515625 -17.472656 77.882812 -14.382812 76.625 -11.5625 C 75.375 -8.738281 73.675781 -6.257812 71.53125 -4.125 C 69.394531 -1.988281 66.914062 -0.332031 64.09375 0.84375 C 61.269531 2.03125 58.257812 2.625 55.0625 2.625 C 52.007812 2.625 49.203125 2.03125 46.640625 0.84375 C 44.085938 -0.332031 41.875 -1.890625 40 -3.828125 C 38.132812 -5.773438 36.664062 -8.023438 35.59375 -10.578125 C 34.53125 -13.140625 34 -15.796875 34 -18.546875 C 34 -21.972656 34.625 -25.117188 35.875 -27.984375 C 37.132812 -30.847656 38.8125 -33.347656 40.90625 -35.484375 C 43.007812 -37.617188 45.453125 -39.273438 48.234375 -40.453125 C 51.023438 -41.640625 53.945312 -42.234375 57 -42.234375 Z M 57 -42.234375 "/></g></g></g><g fill="#0e454c" fill-opacity="0.4"><g transform="translate(909.87053, 471.29522)"><g><path d="M 76.6875 -118.359375 C 80.8125 -118.359375 84.4375 -118.164062 87.5625 -117.78125 C 90.695312 -117.40625 93.5625 -116.988281 96.15625 -116.53125 L 105.3125 -161.734375 L 133.125 -161.734375 L 111.609375 -54.140625 C 111.148438 -51.703125 110.691406 -49.085938 110.234375 -46.296875 C 109.773438 -43.515625 109.296875 -40.082031 108.796875 -36 C 108.296875 -31.914062 107.738281 -26.972656 107.125 -21.171875 C 106.519531 -15.367188 105.835938 -8.3125 105.078125 0 L 82.296875 0 L 83.21875 -21.0625 C 81.457031 -18.394531 79.238281 -15.664062 76.5625 -12.875 C 73.894531 -10.09375 70.785156 -7.554688 67.234375 -5.265625 C 63.691406 -2.972656 59.765625 -1.085938 55.453125 0.390625 C 51.140625 1.878906 46.46875 2.625 41.4375 2.625 C 30.144531 2.625 21.578125 -0.878906 15.734375 -7.890625 C 9.898438 -14.910156 6.984375 -24.867188 6.984375 -37.765625 C 6.984375 -49.441406 8.546875 -60.222656 11.671875 -70.109375 C 14.804688 -79.992188 19.347656 -88.503906 25.296875 -95.640625 C 31.242188 -102.773438 38.546875 -108.34375 47.203125 -112.34375 C 55.867188 -116.351562 65.695312 -118.359375 76.6875 -118.359375 Z M 36.0625 -39.609375 C 36.0625 -33.503906 37.109375 -28.847656 39.203125 -25.640625 C 41.304688 -22.429688 44.492188 -20.828125 48.765625 -20.828125 C 52.273438 -20.828125 56.015625 -22.238281 59.984375 -25.0625 C 63.953125 -27.882812 67.726562 -31.507812 71.3125 -35.9375 C 74.894531 -40.363281 78.039062 -45.285156 80.75 -50.703125 C 83.457031 -56.117188 85.3125 -61.425781 86.3125 -66.625 L 91.6875 -93.96875 C 90.007812 -94.582031 87.796875 -95.175781 85.046875 -95.75 C 82.296875 -96.320312 79.28125 -96.609375 76 -96.609375 C 70.582031 -96.609375 65.832031 -95.632812 61.75 -93.6875 C 57.664062 -91.738281 54.132812 -89.179688 51.15625 -86.015625 C 48.1875 -82.847656 45.726562 -79.242188 43.78125 -75.203125 C 41.832031 -71.160156 40.285156 -67.039062 39.140625 -62.84375 C 37.992188 -58.644531 37.191406 -54.503906 36.734375 -50.421875 C 36.285156 -46.335938 36.0625 -42.734375 36.0625 -39.609375 Z M 36.0625 -39.609375 "/></g></g></g><g fill="#0e454c" fill-opacity="0.4"><g transform="translate(1072.518072, 471.29522)"><g><path d="M 38 -48.53125 C 37.84375 -47.613281 37.726562 -46.5625 37.65625 -45.375 C 37.582031 -44.195312 37.546875 -42.882812 37.546875 -41.4375 C 37.546875 -34.488281 39.738281 -29.125 44.125 -25.34375 C 48.507812 -21.570312 54.976562 -19.6875 63.53125 -19.6875 C 69.25 -19.6875 75.390625 -20.125 81.953125 -21 C 88.515625 -21.882812 94.8125 -23.164062 100.84375 -24.84375 L 100.84375 -3.09375 C 94.4375 -1.414062 87.550781 -0.046875 80.1875 1.015625 C 72.820312 2.085938 65.472656 2.625 58.140625 2.625 C 50.671875 2.625 43.957031 1.710938 38 -0.109375 C 32.050781 -1.941406 27.015625 -4.648438 22.890625 -8.234375 C 18.773438 -11.828125 15.609375 -16.332031 13.390625 -21.75 C 11.179688 -27.164062 10.078125 -33.5 10.078125 -40.75 C 10.078125 -51.28125 11.695312 -61.273438 14.9375 -70.734375 C 18.175781 -80.203125 22.753906 -88.503906 28.671875 -95.640625 C 34.585938 -102.773438 41.703125 -108.421875 50.015625 -112.578125 C 58.335938 -116.734375 67.609375 -118.8125 77.828125 -118.8125 C 84.472656 -118.8125 90.367188 -118.046875 95.515625 -116.515625 C 100.671875 -114.992188 105.019531 -112.859375 108.5625 -110.109375 C 112.113281 -107.367188 114.820312 -104.070312 116.6875 -100.21875 C 118.5625 -96.363281 119.5 -92.109375 119.5 -87.453125 C 119.5 -81.578125 118.316406 -76.253906 115.953125 -71.484375 C 113.585938 -66.710938 109.769531 -62.628906 104.5 -59.234375 C 99.238281 -55.835938 92.390625 -53.203125 83.953125 -51.328125 C 75.523438 -49.460938 65.28125 -48.53125 53.21875 -48.53125 Z M 54.59375 -68.453125 C 62.613281 -68.453125 69.0625 -68.910156 73.9375 -69.828125 C 78.820312 -70.742188 82.617188 -71.941406 85.328125 -73.421875 C 88.035156 -74.910156 89.847656 -76.644531 90.765625 -78.625 C 91.679688 -80.613281 92.140625 -82.675781 92.140625 -84.8125 C 92.140625 -88.863281 90.570312 -92.070312 87.4375 -94.4375 C 84.3125 -96.800781 80.15625 -97.984375 74.96875 -97.984375 C 70.769531 -97.984375 66.914062 -97.195312 63.40625 -95.625 C 59.894531 -94.0625 56.785156 -91.945312 54.078125 -89.28125 C 51.367188 -86.613281 49.039062 -83.484375 47.09375 -79.890625 C 45.15625 -76.304688 43.613281 -72.492188 42.46875 -68.453125 Z M 54.59375 -68.453125 "/></g></g></g><g fill="#0e454c" fill-opacity="0.4"><g transform="translate(1235.165614, 471.29522)"><g><path d="M 126.375 -116.296875 C 125.144531 -105.078125 122.8125 -94.007812 119.375 -83.09375 C 115.945312 -72.1875 111.582031 -61.710938 106.28125 -51.671875 C 100.976562 -41.640625 94.816406 -32.234375 87.796875 -23.453125 C 80.773438 -14.679688 73.066406 -6.863281 64.671875 0 L 37.09375 0 L 14.078125 -116.296875 L 43.15625 -116.296875 L 59.296875 -27.921875 C 64.640625 -33.035156 69.445312 -38.816406 73.71875 -45.265625 C 77.988281 -51.710938 81.707031 -58.691406 84.875 -66.203125 C 88.039062 -73.722656 90.613281 -81.679688 92.59375 -90.078125 C 94.582031 -98.472656 95.921875 -107.210938 96.609375 -116.296875 Z M 126.375 -116.296875 "/></g></g></g><g fill="#0e454c" fill-opacity="1"><g transform="translate(86.272293, 460.93469)"><g><path d="M 53.21875 2.625 C 37.582031 2.625 25.582031 -1.679688 17.21875 -10.296875 C 8.863281 -18.921875 4.6875 -31.4375 4.6875 -47.84375 C 4.6875 -55.476562 5.332031 -63.335938 6.625 -71.421875 C 7.925781 -79.515625 9.910156 -87.429688 12.578125 -95.171875 C 15.253906 -102.921875 18.648438 -110.25 22.765625 -117.15625 C 26.890625 -124.0625 31.8125 -130.085938 37.53125 -135.234375 C 43.257812 -140.390625 49.804688 -144.492188 57.171875 -147.546875 C 64.535156 -150.597656 72.757812 -152.125 81.84375 -152.125 C 97.488281 -152.125 109.488281 -147.832031 117.84375 -139.25 C 126.195312 -130.664062 130.375 -118.171875 130.375 -101.765625 C 130.375 -94.128906 129.722656 -86.25 128.421875 -78.125 C 127.128906 -70 125.144531 -62.0625 122.46875 -54.3125 C 119.800781 -46.5625 116.40625 -39.253906 112.28125 -32.390625 C 108.164062 -25.523438 103.242188 -19.5 97.515625 -14.3125 C 91.796875 -9.125 85.253906 -5.003906 77.890625 -1.953125 C 70.523438 1.097656 62.300781 2.625 53.21875 2.625 Z M 57.234375 -22.65625 C 62.035156 -22.65625 66.441406 -23.722656 70.453125 -25.859375 C 74.460938 -28.003906 78.085938 -30.90625 81.328125 -34.5625 C 84.566406 -38.226562 87.40625 -42.519531 89.84375 -47.4375 C 92.289062 -52.363281 94.332031 -57.671875 95.96875 -63.359375 C 97.613281 -69.046875 98.835938 -74.957031 99.640625 -81.09375 C 100.441406 -87.238281 100.84375 -93.328125 100.84375 -99.359375 C 100.84375 -108.816406 99.03125 -115.757812 95.40625 -120.1875 C 91.78125 -124.613281 85.921875 -126.828125 77.828125 -126.828125 C 73.023438 -126.828125 68.617188 -125.773438 64.609375 -123.671875 C 60.609375 -121.578125 56.984375 -118.695312 53.734375 -115.03125 C 50.492188 -111.375 47.648438 -107.0625 45.203125 -102.09375 C 42.765625 -97.132812 40.722656 -91.832031 39.078125 -86.1875 C 37.441406 -80.539062 36.222656 -74.625 35.421875 -68.4375 C 34.617188 -62.257812 34.21875 -56.160156 34.21875 -50.140625 C 34.21875 -40.671875 36.007812 -33.722656 39.59375 -29.296875 C 43.1875 -24.867188 49.066406 -22.65625 57.234375 -22.65625 Z M 57.234375 -22.65625 "/></g></g></g><g fill="#0e454c" fill-opacity="1"><g transform="translate(248.919835, 460.93469)"><g><path d="M 8.921875 -27.015625 C 16.710938 -24.265625 24.15625 -22.203125 31.25 -20.828125 C 38.34375 -19.453125 44.941406 -18.765625 51.046875 -18.765625 C 59.972656 -18.765625 66.476562 -20.175781 70.5625 -23 C 74.644531 -25.832031 76.6875 -29.421875 76.6875 -33.765625 C 76.6875 -35.296875 76.378906 -36.6875 75.765625 -37.9375 C 75.160156 -39.195312 74.054688 -40.398438 72.453125 -41.546875 C 70.847656 -42.691406 68.65625 -43.835938 65.875 -44.984375 C 63.09375 -46.128906 59.488281 -47.390625 55.0625 -48.765625 C 44.375 -52.046875 36.359375 -56.46875 31.015625 -62.03125 C 25.671875 -67.601562 23 -74.664062 23 -83.21875 C 23 -88.101562 24.21875 -92.695312 26.65625 -97 C 29.101562 -101.3125 32.671875 -105.085938 37.359375 -108.328125 C 42.054688 -111.578125 47.878906 -114.132812 54.828125 -116 C 61.773438 -117.875 69.75 -118.8125 78.75 -118.8125 C 86.382812 -118.8125 92.910156 -118.488281 98.328125 -117.84375 C 103.742188 -117.195312 108.472656 -116.453125 112.515625 -115.609375 L 112.515625 -92.828125 C 105.117188 -95.046875 98.59375 -96.492188 92.9375 -97.171875 C 87.289062 -97.859375 82.179688 -98.203125 77.609375 -98.203125 C 72.878906 -98.203125 68.910156 -97.800781 65.703125 -97 C 62.492188 -96.207031 59.9375 -95.082031 58.03125 -93.625 C 56.125 -92.175781 54.769531 -90.671875 53.96875 -89.109375 C 53.164062 -87.546875 52.765625 -86.039062 52.765625 -84.59375 C 52.765625 -82.832031 53.109375 -81.265625 53.796875 -79.890625 C 54.484375 -78.515625 55.703125 -77.21875 57.453125 -76 C 59.210938 -74.78125 61.578125 -73.5625 64.546875 -72.34375 C 67.523438 -71.125 71.269531 -69.828125 75.78125 -68.453125 C 86.15625 -65.171875 93.9375 -60.972656 99.125 -55.859375 C 104.3125 -50.742188 106.90625 -44.410156 106.90625 -36.859375 C 106.90625 -30.066406 105.453125 -24.207031 102.546875 -19.28125 C 99.648438 -14.363281 95.679688 -10.265625 90.640625 -6.984375 C 85.609375 -3.703125 79.695312 -1.28125 72.90625 0.28125 C 66.113281 1.84375 58.828125 2.625 51.046875 2.625 C 42.273438 2.625 34.4375 2.222656 27.53125 1.421875 C 20.625 0.628906 14.421875 -0.453125 8.921875 -1.828125 Z M 8.921875 -27.015625 "/></g></g></g><g fill="#0e454c" fill-opacity="1"><g transform="translate(411.567377, 460.93469)"><g><path d="M 66.15625 -63.296875 L 70.734375 -86.53125 L 123.96875 -86.53125 L 107.828125 -6.75 C 100.421875 -3.625 93.070312 -1.28125 85.78125 0.28125 C 78.5 1.84375 70.472656 2.625 61.703125 2.625 C 52.992188 2.625 45.222656 1.40625 38.390625 -1.03125 C 31.566406 -3.46875 25.769531 -7.03125 21 -11.71875 C 16.226562 -16.414062 12.582031 -22.179688 10.0625 -29.015625 C 7.550781 -35.847656 6.296875 -43.6875 6.296875 -52.53125 C 6.296875 -58.414062 6.847656 -64.960938 7.953125 -72.171875 C 9.054688 -79.378906 10.941406 -86.679688 13.609375 -94.078125 C 16.285156 -101.484375 19.835938 -108.660156 24.265625 -115.609375 C 28.691406 -122.554688 34.203125 -128.738281 40.796875 -134.15625 C 47.398438 -139.570312 55.222656 -143.921875 64.265625 -147.203125 C 73.304688 -150.484375 83.78125 -152.125 95.6875 -152.125 C 102.476562 -152.125 109.269531 -151.492188 116.0625 -150.234375 C 122.851562 -148.972656 129.265625 -147.351562 135.296875 -145.375 L 129.921875 -119.390625 C 124.878906 -121.296875 119.171875 -123.03125 112.796875 -124.59375 C 106.429688 -126.15625 99.773438 -126.9375 92.828125 -126.9375 C 85.878906 -126.9375 79.640625 -125.769531 74.109375 -123.4375 C 68.578125 -121.113281 63.691406 -118.023438 59.453125 -114.171875 C 55.222656 -110.316406 51.617188 -105.890625 48.640625 -100.890625 C 45.671875 -95.898438 43.226562 -90.675781 41.3125 -85.21875 C 39.40625 -79.757812 38.015625 -74.265625 37.140625 -68.734375 C 36.265625 -63.203125 35.828125 -58.03125 35.828125 -53.21875 C 35.828125 -48.257812 36.414062 -43.890625 37.59375 -40.109375 C 38.78125 -36.335938 40.648438 -33.132812 43.203125 -30.5 C 45.765625 -27.875 49.046875 -25.890625 53.046875 -24.546875 C 57.054688 -23.210938 61.882812 -22.546875 67.53125 -22.546875 C 71.039062 -22.546875 74 -22.753906 76.40625 -23.171875 C 78.8125 -23.597656 81.234375 -24.226562 83.671875 -25.0625 L 91.453125 -63.296875 Z M 66.15625 -63.296875 "/></g></g></g><g fill="#0e454c" fill-opacity="1"><g transform="translate(574.214919, 460.93469)"><g><path d="M 41.4375 2.625 C 30.144531 2.625 21.578125 -0.878906 15.734375 -7.890625 C 9.898438 -14.910156 6.984375 -24.867188 6.984375 -37.765625 C 6.984375 -49.441406 8.546875 -60.222656 11.671875 -70.109375 C 14.804688 -79.992188 19.347656 -88.503906 25.296875 -95.640625 C 31.242188 -102.773438 38.546875 -108.34375 47.203125 -112.34375 C 55.867188 -116.351562 65.695312 -118.359375 76.6875 -118.359375 C 82.5625 -118.359375 87.804688 -117.957031 92.421875 -117.15625 C 97.046875 -116.351562 101.070312 -115.414062 104.5 -114.34375 L 124.421875 -118.578125 L 111.609375 -54.140625 C 111.148438 -51.703125 110.691406 -49.085938 110.234375 -46.296875 C 109.773438 -43.515625 109.296875 -40.082031 108.796875 -36 C 108.296875 -31.914062 107.738281 -26.972656 107.125 -21.171875 C 106.519531 -15.367188 105.835938 -8.3125 105.078125 0 L 82.296875 0 L 83.21875 -21.0625 C 81.457031 -18.394531 79.238281 -15.664062 76.5625 -12.875 C 73.894531 -10.09375 70.785156 -7.554688 67.234375 -5.265625 C 63.691406 -2.972656 59.765625 -1.085938 55.453125 0.390625 C 51.140625 1.878906 46.46875 2.625 41.4375 2.625 Z M 91.6875 -93.96875 C 89.238281 -94.8125 86.738281 -95.460938 84.1875 -95.921875 C 81.632812 -96.378906 78.90625 -96.609375 76 -96.609375 C 70.582031 -96.609375 65.832031 -95.632812 61.75 -93.6875 C 57.664062 -91.738281 54.132812 -89.179688 51.15625 -86.015625 C 48.1875 -82.847656 45.726562 -79.242188 43.78125 -75.203125 C 41.832031 -71.160156 40.285156 -67.039062 39.140625 -62.84375 C 37.992188 -58.644531 37.191406 -54.503906 36.734375 -50.421875 C 36.285156 -46.335938 36.0625 -42.734375 36.0625 -39.609375 C 36.0625 -33.503906 37.109375 -28.847656 39.203125 -25.640625 C 41.304688 -22.429688 44.492188 -20.828125 48.765625 -20.828125 C 52.273438 -20.828125 56.015625 -22.238281 59.984375 -25.0625 C 63.953125 -27.882812 67.726562 -31.507812 71.3125 -35.9375 C 74.894531 -40.363281 78.039062 -45.285156 80.75 -50.703125 C 83.457031 -56.117188 85.3125 -61.425781 86.3125 -66.625 Z M 91.6875 -93.96875 "/></g></g></g><g fill="#0e454c" fill-opacity="1"><g transform="translate(736.862461, 460.93469)"><g><path d="M 57 -42.234375 C 60.132812 -42.234375 63.015625 -41.640625 65.640625 -40.453125 C 68.273438 -39.273438 70.546875 -37.710938 72.453125 -35.765625 C 74.359375 -33.816406 75.84375 -31.546875 76.90625 -28.953125 C 77.976562 -26.359375 78.515625 -23.648438 78.515625 -20.828125 C 78.515625 -17.472656 77.882812 -14.382812 76.625 -11.5625 C 75.375 -8.738281 73.675781 -6.257812 71.53125 -4.125 C 69.394531 -1.988281 66.914062 -0.332031 64.09375 0.84375 C 61.269531 2.03125 58.257812 2.625 55.0625 2.625 C 52.007812 2.625 49.203125 2.03125 46.640625 0.84375 C 44.085938 -0.332031 41.875 -1.890625 40 -3.828125 C 38.132812 -5.773438 36.664062 -8.023438 35.59375 -10.578125 C 34.53125 -13.140625 34 -15.796875 34 -18.546875 C 34 -21.972656 34.625 -25.117188 35.875 -27.984375 C 37.132812 -30.847656 38.8125 -33.347656 40.90625 -35.484375 C 43.007812 -37.617188 45.453125 -39.273438 48.234375 -40.453125 C 51.023438 -41.640625 53.945312 -42.234375 57 -42.234375 Z M 57 -42.234375 "/></g></g></g><g fill="#0e454c" fill-opacity="1"><g transform="translate(899.510002, 460.93469)"><g><path d="M 76.6875 -118.359375 C 80.8125 -118.359375 84.4375 -118.164062 87.5625 -117.78125 C 90.695312 -117.40625 93.5625 -116.988281 96.15625 -116.53125 L 105.3125 -161.734375 L 133.125 -161.734375 L 111.609375 -54.140625 C 111.148438 -51.703125 110.691406 -49.085938 110.234375 -46.296875 C 109.773438 -43.515625 109.296875 -40.082031 108.796875 -36 C 108.296875 -31.914062 107.738281 -26.972656 107.125 -21.171875 C 106.519531 -15.367188 105.835938 -8.3125 105.078125 0 L 82.296875 0 L 83.21875 -21.0625 C 81.457031 -18.394531 79.238281 -15.664062 76.5625 -12.875 C 73.894531 -10.09375 70.785156 -7.554688 67.234375 -5.265625 C 63.691406 -2.972656 59.765625 -1.085938 55.453125 0.390625 C 51.140625 1.878906 46.46875 2.625 41.4375 2.625 C 30.144531 2.625 21.578125 -0.878906 15.734375 -7.890625 C 9.898438 -14.910156 6.984375 -24.867188 6.984375 -37.765625 C 6.984375 -49.441406 8.546875 -60.222656 11.671875 -70.109375 C 14.804688 -79.992188 19.347656 -88.503906 25.296875 -95.640625 C 31.242188 -102.773438 38.546875 -108.34375 47.203125 -112.34375 C 55.867188 -116.351562 65.695312 -118.359375 76.6875 -118.359375 Z M 36.0625 -39.609375 C 36.0625 -33.503906 37.109375 -28.847656 39.203125 -25.640625 C 41.304688 -22.429688 44.492188 -20.828125 48.765625 -20.828125 C 52.273438 -20.828125 56.015625 -22.238281 59.984375 -25.0625 C 63.953125 -27.882812 67.726562 -31.507812 71.3125 -35.9375 C 74.894531 -40.363281 78.039062 -45.285156 80.75 -50.703125 C 83.457031 -56.117188 85.3125 -61.425781 86.3125 -66.625 L 91.6875 -93.96875 C 90.007812 -94.582031 87.796875 -95.175781 85.046875 -95.75 C 82.296875 -96.320312 79.28125 -96.609375 76 -96.609375 C 70.582031 -96.609375 65.832031 -95.632812 61.75 -93.6875 C 57.664062 -91.738281 54.132812 -89.179688 51.15625 -86.015625 C 48.1875 -82.847656 45.726562 -79.242188 43.78125 -75.203125 C 41.832031 -71.160156 40.285156 -67.039062 39.140625 -62.84375 C 37.992188 -58.644531 37.191406 -54.503906 36.734375 -50.421875 C 36.285156 -46.335938 36.0625 -42.734375 36.0625 -39.609375 Z M 36.0625 -39.609375 "/></g></g></g><g fill="#0e454c" fill-opacity="1"><g transform="translate(1062.157544, 460.93469)"><g><path d="M 38 -48.53125 C 37.84375 -47.613281 37.726562 -46.5625 37.65625 -45.375 C 37.582031 -44.195312 37.546875 -42.882812 37.546875 -41.4375 C 37.546875 -34.488281 39.738281 -29.125 44.125 -25.34375 C 48.507812 -21.570312 54.976562 -19.6875 63.53125 -19.6875 C 69.25 -19.6875 75.390625 -20.125 81.953125 -21 C 88.515625 -21.882812 94.8125 -23.164062 100.84375 -24.84375 L 100.84375 -3.09375 C 94.4375 -1.414062 87.550781 -0.046875 80.1875 1.015625 C 72.820312 2.085938 65.472656 2.625 58.140625 2.625 C 50.671875 2.625 43.957031 1.710938 38 -0.109375 C 32.050781 -1.941406 27.015625 -4.648438 22.890625 -8.234375 C 18.773438 -11.828125 15.609375 -16.332031 13.390625 -21.75 C 11.179688 -27.164062 10.078125 -33.5 10.078125 -40.75 C 10.078125 -51.28125 11.695312 -61.273438 14.9375 -70.734375 C 18.175781 -80.203125 22.753906 -88.503906 28.671875 -95.640625 C 34.585938 -102.773438 41.703125 -108.421875 50.015625 -112.578125 C 58.335938 -116.734375 67.609375 -118.8125 77.828125 -118.8125 C 84.472656 -118.8125 90.367188 -118.046875 95.515625 -116.515625 C 100.671875 -114.992188 105.019531 -112.859375 108.5625 -110.109375 C 112.113281 -107.367188 114.820312 -104.070312 116.6875 -100.21875 C 118.5625 -96.363281 119.5 -92.109375 119.5 -87.453125 C 119.5 -81.578125 118.316406 -76.253906 115.953125 -71.484375 C 113.585938 -66.710938 109.769531 -62.628906 104.5 -59.234375 C 99.238281 -55.835938 92.390625 -53.203125 83.953125 -51.328125 C 75.523438 -49.460938 65.28125 -48.53125 53.21875 -48.53125 Z M 54.59375 -68.453125 C 62.613281 -68.453125 69.0625 -68.910156 73.9375 -69.828125 C 78.820312 -70.742188 82.617188 -71.941406 85.328125 -73.421875 C 88.035156 -74.910156 89.847656 -76.644531 90.765625 -78.625 C 91.679688 -80.613281 92.140625 -82.675781 92.140625 -84.8125 C 92.140625 -88.863281 90.570312 -92.070312 87.4375 -94.4375 C 84.3125 -96.800781 80.15625 -97.984375 74.96875 -97.984375 C 70.769531 -97.984375 66.914062 -97.195312 63.40625 -95.625 C 59.894531 -94.0625 56.785156 -91.945312 54.078125 -89.28125 C 51.367188 -86.613281 49.039062 -83.484375 47.09375 -79.890625 C 45.15625 -76.304688 43.613281 -72.492188 42.46875 -68.453125 Z M 54.59375 -68.453125 "/></g></g></g><g fill="#0e454c" fill-opacity="1"><g transform="translate(1224.805086, 460.93469)"><g><path d="M 126.375 -116.296875 C 125.144531 -105.078125 122.8125 -94.007812 119.375 -83.09375 C 115.945312 -72.1875 111.582031 -61.710938 106.28125 -51.671875 C 100.976562 -41.640625 94.816406 -32.234375 87.796875 -23.453125 C 80.773438 -14.679688 73.066406 -6.863281 64.671875 0 L 37.09375 0 L 14.078125 -116.296875 L 43.15625 -116.296875 L 59.296875 -27.921875 C 64.640625 -33.035156 69.445312 -38.816406 73.71875 -45.265625 C 77.988281 -51.710938 81.707031 -58.691406 84.875 -66.203125 C 88.039062 -73.722656 90.613281 -81.679688 92.59375 -90.078125 C 94.582031 -98.472656 95.921875 -107.210938 96.609375 -116.296875 Z M 126.375 -116.296875 "/></g></g></g></svg>