<svg width="1204" height="207" viewBox="0 0 1204 207" fill="none" xmlns="http://www.w3.org/2000/svg">
<g filter="url(#filter0_d_3_2)">
<mask id="path-1-outside-1_3_2" maskUnits="userSpaceOnUse" x="4" y="0" width="1196" height="199" fill="black">
<rect fill="white" x="4" width="1196" height="199"/>
<path d="M109.137 23.8C125.137 23.8 139.27 27.2 151.537 34C163.803 40.8 173.27 50.2 179.937 62.2C186.603 74.2 189.937 87.8 189.937 103C189.937 118.6 184.87 133 174.737 146.2C164.737 159.4 152.27 169.867 137.337 177.6C122.403 185.2 108.27 189 94.9367 189C78.9367 189 64.8034 185.667 52.5367 179C40.4034 172.2 30.9367 162.8 24.1367 150.8C17.4701 138.8 14.1367 125.2 14.1367 110C14.1367 94.4 19.1367 80 29.1367 66.8C39.2701 53.4667 51.8034 43 66.7367 35.4C81.6701 27.6667 95.8034 23.8 109.137 23.8ZM97.5367 50.6C90.8701 50.6 84.7367 52.8 79.1367 57.2C73.6701 61.4667 69.2701 67.4 65.9367 75C62.7367 82.6 61.1367 91.0667 61.1367 100.4C61.1367 111.733 62.8034 122.067 66.1367 131.4C69.4701 140.733 74.5367 148.2 81.3367 153.8C88.2701 159.4 96.6701 162.2 106.537 162.2C113.203 162.2 119.27 160.067 124.737 155.8C130.337 151.4 134.737 145.4 137.937 137.8C141.27 130.2 142.937 121.733 142.937 112.4C142.937 100.933 141.27 90.5333 137.937 81.2C134.603 71.8667 129.537 64.4667 122.737 59C115.937 53.4 107.537 50.6 97.5367 50.6ZM271.24 157.4C271.24 155.533 269.707 153.533 266.64 151.4C263.707 149.133 258.973 146.067 252.44 142.2C241.907 136.067 233.707 130.533 227.84 125.6C221.973 120.667 219.04 115.2 219.04 109.2C219.04 104.4 221.507 99.2667 226.44 93.8C231.373 88.3333 237.373 83.7333 244.44 80C251.64 76.2667 258.24 74.4 264.24 74.4C271.573 74.4 280.107 75.2 289.84 76.8C299.573 78.2667 306.64 79.9333 311.04 81.8V116.6H295.44C292.24 111 288.307 106.6 283.64 103.4C278.973 100.067 274.24 98.4 269.44 98.4C267.573 98.4 266.107 98.9333 265.04 100C264.107 101.067 263.64 102.4 263.64 104C263.64 106.133 265.173 108.4 268.24 110.8C271.44 113.067 276.44 116.2 283.24 120.2C293.507 126.067 301.507 131.4 307.24 136.2C312.973 141 315.84 146.333 315.84 152.2C315.84 157.133 313.307 162.333 308.24 167.8C303.173 173.133 296.973 177.667 289.64 181.4C282.307 185.133 275.573 187 269.44 187C261.707 187 252.507 186.267 241.84 184.8C231.173 183.2 223.507 181.467 218.84 179.6V142.8H234.44C238.173 149.067 242.773 154 248.24 157.6C253.707 161.2 259.107 163 264.44 163C266.44 163 268.04 162.467 269.24 161.4C270.573 160.333 271.24 159 271.24 157.4ZM499.559 147.8L504.959 161.8L468.159 184.4C461.092 186.267 454.292 187.467 447.759 188C441.359 188.533 434.425 188.8 426.959 188.8C410.159 188.8 395.292 185.4 382.359 178.6C369.425 171.8 359.359 162.467 352.159 150.6C345.092 138.6 341.559 125 341.559 109.8C341.559 94.2 346.825 79.8 357.359 66.6C368.025 53.2667 381.159 42.8 396.759 35.2C412.492 27.4667 427.425 23.6 441.559 23.6C450.359 23.6 460.625 24.6 472.359 26.6C484.225 28.6 492.892 30.7333 498.359 33V85.8H472.759C467.292 73.5333 460.892 64.6 453.559 59C446.359 53.2667 438.492 50.4 429.959 50.4C422.359 50.4 415.359 52.6 408.959 57C402.692 61.2667 397.692 67.2 393.959 74.8C390.359 82.4 388.559 90.8667 388.559 100.2C388.559 111.533 390.359 121.867 393.959 131.2C397.559 140.4 403.092 147.8 410.559 153.4C418.025 159 427.225 161.8 438.159 161.8H444.359C449.559 161.8 453.625 161.667 456.559 161.4V127.2L423.759 119.8L431.759 103.8H518.559V118L499.559 134.6V147.8ZM662.551 185H612.551V167.6L589.951 185.4C587.284 186.467 583.951 187 579.951 187C566.351 187 556.484 183.733 550.351 177.2C544.351 170.533 541.351 162.533 541.351 153.2C541.351 147.867 542.884 142.667 545.951 137.6C549.017 132.4 553.484 127.6 559.351 123.2H612.551C612.151 117.333 610.151 112.933 606.551 110C602.951 106.933 598.417 105.4 592.951 105.4C583.751 105.4 570.284 108.2 552.551 113.8L546.551 100.2L573.951 78.2C581.284 75.6667 590.084 74.4 600.351 74.4C616.884 74.4 629.751 78.0667 638.951 85.4C648.151 92.6 652.751 103.2 652.751 117.2V162L670.551 169L662.551 185ZM592.151 154C598.017 154 604.817 151.733 612.551 147.2V139.4H582.151C581.484 140.6 581.017 141.667 580.751 142.6C580.484 143.4 580.351 144.467 580.351 145.8C580.351 148.333 581.351 150.333 583.351 151.8C585.484 153.267 588.484 154 592.351 154H592.151ZM717.832 141C724.499 141 729.965 143.067 734.232 147.2C738.632 151.333 740.832 156.467 740.832 162.6C740.832 166.867 739.232 170.867 736.032 174.6C732.965 178.333 729.099 181.333 724.432 183.6C719.765 185.867 715.232 187 710.832 187C704.299 187 698.832 184.933 694.432 180.8C690.032 176.667 687.832 171.6 687.832 165.6C687.832 161.333 689.365 157.333 692.432 153.6C695.632 149.733 699.565 146.667 704.232 144.4C708.899 142.133 713.432 141 717.832 141ZM896.871 185H846.871V169.8L827.471 185.4C823.204 186.467 818.338 187 812.871 187C804.071 187 796.138 184.733 789.071 180.2C782.138 175.533 776.671 169.2 772.671 161.2C768.804 153.067 766.871 144.067 766.871 134.2C766.871 123.533 770.404 113.6 777.471 104.4C784.538 95.2 793.404 87.9333 804.071 82.6C814.738 77.1333 825.071 74.4 835.071 74.4C839.204 74.4 843.138 75.3333 846.871 77.2V54L829.071 42.4V28.2L871.271 10.4H886.871V163.4L904.871 169L896.871 185ZM826.671 154.2C833.871 154.2 840.671 152.733 847.071 149.8V116.2C846.271 111.8 843.871 108.2 839.871 105.4C835.871 102.6 830.404 101.2 823.471 101.2C813.738 101.2 808.871 109.067 808.871 124.8C808.871 133.467 810.338 140.533 813.271 146C816.204 151.467 820.604 154.2 826.471 154.2H826.671ZM993.895 74.4C1008.69 74.4 1020.16 79.9333 1028.29 91C1036.43 102.067 1040.29 117.8 1039.89 138.2H969.295C970.895 144.333 973.561 149.2 977.295 152.8C981.028 156.267 985.761 158 991.495 158C1000.96 158 1015.09 154.533 1033.89 147.6L1039.89 161.2L1012.49 183.2C1003.43 185.733 992.561 187 979.895 187C969.495 187 960.161 184.733 951.895 180.2C943.761 175.533 937.361 169.2 932.695 161.2C928.161 153.067 925.895 144.067 925.895 134.2C925.895 123.533 929.428 113.6 936.495 104.4C943.561 95.2 952.428 87.9333 963.095 82.6C973.761 77.1333 984.095 74.4 994.095 74.4H993.895ZM983.295 101.2C978.361 101.2 974.628 102.933 972.095 106.4C969.561 109.733 968.161 114.933 967.895 122H1000.89C1000.23 114.933 998.495 109.733 995.695 106.4C992.895 102.933 988.695 101.2 983.095 101.2H983.295ZM1189.87 90.6L1138.07 185H1106.87L1078.27 115.4L1058.07 103.6V89.4L1108.27 72.6L1115.87 102.8L1136.27 152L1157.87 111.6L1128.07 92.4L1136.07 76.4H1189.87V90.6Z"/>
</mask>
<path d="M179.937 62.2L188.678 57.3436L188.678 57.3436L179.937 62.2ZM174.737 146.2L166.805 140.111L166.785 140.136L166.766 140.161L174.737 146.2ZM137.337 177.6L141.872 186.512L141.904 186.496L141.935 186.48L137.337 177.6ZM52.5367 179L47.6478 187.723L47.7045 187.755L47.7616 187.786L52.5367 179ZM24.1367 150.8L15.3951 155.656L15.4157 155.693L15.4365 155.73L24.1367 150.8ZM29.1367 66.8L21.1751 60.7492L21.1704 60.7553L21.1658 60.7614L29.1367 66.8ZM66.7367 35.4L71.2724 44.3122L71.3039 44.2962L71.3353 44.2799L66.7367 35.4ZM79.1367 57.2L85.2894 65.0831L85.3022 65.0732L85.3149 65.0632L79.1367 57.2ZM65.9367 75L56.7788 70.9834L56.7491 71.0512L56.7204 71.1194L65.9367 75ZM66.1367 131.4L56.7193 134.763L56.7193 134.763L66.1367 131.4ZM81.3367 153.8L74.9796 161.519L75.0164 161.55L75.0534 161.579L81.3367 153.8ZM124.737 155.8L130.889 163.683L130.902 163.673L130.915 163.663L124.737 155.8ZM137.937 137.8L128.779 133.783L128.749 133.851L128.72 133.919L137.937 137.8ZM137.937 81.2L147.354 77.8366L147.354 77.8366L137.937 81.2ZM122.737 59L116.38 66.7193L116.425 66.7568L116.471 66.7937L122.737 59ZM109.137 23.8V33.8C123.682 33.8 136.103 36.8783 146.688 42.746L151.537 34L156.385 25.2539C142.437 17.5217 126.591 13.8 109.137 13.8V23.8ZM151.537 34L146.688 42.746C157.357 48.6599 165.457 56.7286 171.195 67.0564L179.937 62.2L188.678 57.3436C181.083 43.6714 170.25 32.9401 156.385 25.2539L151.537 34ZM179.937 62.2L171.195 67.0564C176.951 77.4161 179.937 89.3131 179.937 103H189.937H199.937C199.937 86.2868 196.256 70.9839 188.678 57.3436L179.937 62.2ZM189.937 103H179.937C179.937 116.246 175.692 128.533 166.805 140.111L174.737 146.2L182.669 152.289C194.048 137.467 199.937 120.954 199.937 103H189.937ZM174.737 146.2L166.766 140.161C157.679 152.156 146.371 161.66 132.738 168.72L137.337 177.6L141.935 186.48C158.169 178.073 171.795 166.644 182.708 152.239L174.737 146.2ZM137.337 177.6L132.801 168.688C118.921 175.752 106.341 179 94.9367 179V189V199C110.199 199 125.886 194.648 141.872 186.512L137.337 177.6ZM94.9367 189V179C80.3587 179 67.911 175.974 57.3119 170.214L52.5367 179L47.7616 187.786C61.6958 195.359 77.5147 199 94.9367 199V189ZM52.5367 179L57.4257 170.277C46.8711 164.361 38.7287 156.267 32.8369 145.87L24.1367 150.8L15.4365 155.73C23.1447 169.333 33.9357 180.039 47.6478 187.723L52.5367 179ZM24.1367 150.8L32.8783 145.944C27.1229 135.584 24.1367 123.687 24.1367 110H14.1367H4.13672C4.13672 126.713 7.81718 142.016 15.3951 155.656L24.1367 150.8ZM14.1367 110H24.1367C24.1367 96.7192 28.3377 84.4149 37.1076 72.8386L29.1367 66.8L21.1658 60.7614C9.93573 75.5851 4.13672 92.0808 4.13672 110H14.1367ZM29.1367 66.8L37.0983 72.8508C46.3194 60.7179 57.6813 51.2291 71.2724 44.3122L66.7367 35.4L62.201 26.4878C45.9255 34.7709 32.2207 46.2154 21.1751 60.7492L29.1367 66.8ZM66.7367 35.4L71.3353 44.2799C85.2101 37.0948 97.7675 33.8 109.137 33.8V23.8V13.8C93.8393 13.8 78.13 18.2385 62.1382 26.5201L66.7367 35.4ZM97.5367 50.6V40.6C88.471 40.6 80.1916 43.6536 72.9585 49.3368L79.1367 57.2L85.3149 65.0632C89.2818 61.9463 93.2691 60.6 97.5367 60.6V50.6ZM79.1367 57.2L72.984 49.3168C65.9765 54.7861 60.6475 62.1629 56.7788 70.9834L65.9367 75L75.0946 79.0166C77.8926 72.6371 81.3636 68.1472 85.2894 65.0831L79.1367 57.2ZM65.9367 75L56.7204 71.1194C52.9393 80.0995 51.1367 89.9089 51.1367 100.4H61.1367H71.1367C71.1367 92.2244 72.5342 85.1005 75.1531 78.8806L65.9367 75ZM61.1367 100.4H51.1367C51.1367 112.717 52.9494 124.208 56.7193 134.763L66.1367 131.4L75.5541 128.037C72.6573 119.926 71.1367 110.749 71.1367 100.4H61.1367ZM66.1367 131.4L56.7193 134.763C60.5826 145.581 66.6163 154.632 74.9796 161.519L81.3367 153.8L87.6938 146.081C82.4571 141.768 78.3575 135.886 75.5541 128.037L66.1367 131.4ZM81.3367 153.8L75.0534 161.579C83.9582 168.772 94.6437 172.2 106.537 172.2V162.2V152.2C98.6964 152.2 92.582 150.028 87.6201 146.021L81.3367 153.8ZM106.537 162.2V172.2C115.528 172.2 123.741 169.262 130.889 163.683L124.737 155.8L118.584 147.917C114.799 150.871 110.879 152.2 106.537 152.2V162.2ZM124.737 155.8L130.915 163.663C138.047 158.06 143.399 150.595 147.153 141.681L137.937 137.8L128.72 133.919C126.074 140.205 122.627 144.74 118.559 147.937L124.737 155.8ZM137.937 137.8L147.095 141.817C151.049 132.801 152.937 122.944 152.937 112.4H142.937H132.937C132.937 120.523 131.491 127.599 128.779 133.783L137.937 137.8ZM142.937 112.4H152.937C152.937 99.9639 151.128 88.4042 147.354 77.8366L137.937 81.2L128.519 84.5633C131.412 92.6624 132.937 101.903 132.937 112.4H142.937ZM137.937 81.2L147.354 77.8366C143.486 67.0057 137.43 57.9813 129.002 51.2062L122.737 59L116.471 66.7937C121.644 70.952 125.721 76.7276 128.519 84.5634L137.937 81.2ZM122.737 59L129.094 51.2807C120.263 44.0082 109.524 40.6 97.5367 40.6V50.6V60.6C105.549 60.6 111.611 62.7918 116.38 66.7193L122.737 59ZM266.64 151.4L260.525 159.313L260.724 159.466L260.929 159.609L266.64 151.4ZM252.44 142.2L257.533 133.594L257.502 133.576L257.472 133.558L252.44 142.2ZM227.84 125.6L221.404 133.254L227.84 125.6ZM226.44 93.8L219.016 87.1003L219.016 87.1003L226.44 93.8ZM244.44 80L239.837 71.1224L239.803 71.1401L239.769 71.1581L244.44 80ZM289.84 76.8L288.218 86.6676L288.284 86.6784L288.35 86.6884L289.84 76.8ZM311.04 81.8H321.04V75.1797L314.945 72.5942L311.04 81.8ZM311.04 116.6V126.6H321.04V116.6H311.04ZM295.44 116.6L286.757 121.561L289.637 126.6H295.44V116.6ZM283.64 103.4L277.827 111.537L277.905 111.593L277.985 111.647L283.64 103.4ZM265.04 100L257.969 92.9289L257.733 93.1644L257.514 93.4149L265.04 100ZM268.24 110.8L262.077 118.675L262.265 118.822L262.46 118.96L268.24 110.8ZM283.24 120.2L278.17 128.819L278.224 128.851L278.278 128.882L283.24 120.2ZM307.24 136.2L313.659 128.532L313.659 128.532L307.24 136.2ZM308.24 167.8L315.49 174.687L315.532 174.643L315.574 174.598L308.24 167.8ZM289.64 181.4L294.177 190.312L289.64 181.4ZM241.84 184.8L240.356 194.689L240.417 194.698L240.478 194.707L241.84 184.8ZM218.84 179.6H208.84V186.37L215.126 188.885L218.84 179.6ZM218.84 142.8V132.8H208.84V142.8H218.84ZM234.44 142.8L243.031 137.682L240.122 132.8H234.44V142.8ZM248.24 157.6L242.74 165.952L242.74 165.952L248.24 157.6ZM269.24 161.4L262.993 153.591L262.79 153.753L262.596 153.926L269.24 161.4ZM271.24 157.4H281.24C281.24 153.609 279.667 150.556 278.026 148.416C276.407 146.304 274.363 144.591 272.35 143.191L266.64 151.4L260.929 159.609C261.423 159.953 261.757 160.223 261.969 160.413C262.184 160.607 262.218 160.668 262.154 160.584C262.046 160.444 261.24 159.324 261.24 157.4H271.24ZM266.64 151.4L272.754 143.487C269.309 140.825 264.134 137.501 257.533 133.594L252.44 142.2L247.347 150.806C253.812 154.632 258.104 157.442 260.525 159.313L266.64 151.4ZM252.44 142.2L257.472 133.558C247.181 127.566 239.526 122.361 234.276 117.946L227.84 125.6L221.404 133.254C227.887 138.706 236.632 144.567 247.408 150.842L252.44 142.2ZM227.84 125.6L234.276 117.946C229.992 114.344 229.04 111.465 229.04 109.2H219.04H209.04C209.04 118.935 213.954 126.989 221.404 133.254L227.84 125.6ZM219.04 109.2H229.04C229.04 107.908 229.734 105.076 233.864 100.5L226.44 93.8L219.016 87.1003C213.279 93.4578 209.04 100.892 209.04 109.2H219.04ZM226.44 93.8L233.864 100.5C237.948 95.9742 242.992 92.0747 249.111 88.8419L244.44 80L239.769 71.1581C231.755 75.3919 224.799 80.6924 219.016 87.1003L226.44 93.8ZM244.44 80L249.043 88.8775C255.298 85.6343 260.305 84.4 264.24 84.4V74.4V64.4C256.175 64.4 247.982 66.8991 239.837 71.1224L244.44 80ZM264.24 74.4V84.4C270.881 84.4 278.85 85.1277 288.218 86.6676L289.84 76.8L291.462 66.9324C281.363 65.2723 272.265 64.4 264.24 64.4V74.4ZM289.84 76.8L288.35 86.6884C297.935 88.1327 303.955 89.6572 307.134 91.0058L311.04 81.8L314.945 72.5942C309.324 70.2095 301.212 68.4007 291.33 66.9116L289.84 76.8ZM311.04 81.8H301.04V116.6H311.04H321.04V81.8H311.04ZM311.04 116.6V106.6H295.44V116.6V126.6H311.04V116.6ZM295.44 116.6L304.122 111.639C300.279 104.913 295.369 99.3178 289.295 95.1527L283.64 103.4L277.985 111.647C281.244 113.882 284.201 117.087 286.757 121.561L295.44 116.6ZM283.64 103.4L289.452 95.2627C283.428 90.9595 276.704 88.4 269.44 88.4V98.4V108.4C271.775 108.4 274.519 109.174 277.827 111.537L283.64 103.4ZM269.44 98.4V88.4C265.588 88.4 261.335 89.5625 257.969 92.9289L265.04 100L272.111 107.071C271.575 107.607 270.948 107.983 270.357 108.198C269.804 108.399 269.45 108.4 269.44 108.4V98.4ZM265.04 100L257.514 93.4149C254.779 96.5409 253.64 100.311 253.64 104H263.64H273.64C273.64 104.178 273.612 104.578 273.428 105.104C273.238 105.647 272.937 106.16 272.566 106.585L265.04 100ZM263.64 104H253.64C253.64 110.995 258.473 115.855 262.077 118.675L268.24 110.8L274.403 102.925C273.913 102.541 273.573 102.233 273.349 102.005C273.123 101.775 273.054 101.669 273.073 101.697C273.11 101.753 273.64 102.573 273.64 104H263.64ZM268.24 110.8L262.46 118.96C266.019 121.481 271.318 124.789 278.17 128.819L283.24 120.2L288.31 111.581C281.562 107.611 276.861 104.652 274.02 102.64L268.24 110.8ZM283.24 120.2L278.278 128.882C288.29 134.603 295.725 139.602 300.82 143.868L307.24 136.2L313.659 128.532C307.288 123.198 298.723 117.53 288.201 111.518L283.24 120.2ZM307.24 136.2L300.82 143.868C304.958 147.331 305.84 150.071 305.84 152.2H315.84H325.84C325.84 142.595 320.989 134.669 313.659 128.532L307.24 136.2ZM315.84 152.2H305.84C305.84 153.589 305.112 156.464 300.906 161.002L308.24 167.8L315.574 174.598C321.501 168.202 325.84 160.678 325.84 152.2H315.84ZM308.24 167.8L300.99 160.913C296.793 165.33 291.543 169.21 285.103 172.488L289.64 181.4L294.177 190.312C302.404 186.123 309.553 180.936 315.49 174.687L308.24 167.8ZM289.64 181.4L285.103 172.488C278.716 175.74 273.552 177 269.44 177V187V197C277.595 197 285.897 194.527 294.177 190.312L289.64 181.4ZM269.44 187V177C262.3 177 253.578 176.32 243.202 174.893L241.84 184.8L240.478 194.707C251.435 196.213 261.113 197 269.44 197V187ZM241.84 184.8L243.323 174.911C232.757 173.326 226.071 171.722 222.554 170.315L218.84 179.6L215.126 188.885C220.942 191.211 229.59 193.074 240.356 194.689L241.84 184.8ZM218.84 179.6H228.84V142.8H218.84H208.84V179.6H218.84ZM218.84 142.8V152.8H234.44V142.8V132.8H218.84V142.8ZM234.44 142.8L225.849 147.918C230.266 155.332 235.874 161.43 242.74 165.952L248.24 157.6L253.74 149.248C249.672 146.57 246.081 142.801 243.031 137.682L234.44 142.8ZM248.24 157.6L242.74 165.952C249.466 170.381 256.748 173 264.44 173V163V153C261.465 153 257.947 152.019 253.74 149.248L248.24 157.6ZM264.44 163V173C268.264 173 272.434 171.94 275.883 168.874L269.24 161.4L262.596 153.926C263.059 153.514 263.559 153.253 263.978 153.113C264.367 152.984 264.559 153 264.44 153V163ZM269.24 161.4L275.487 169.209C279.009 166.391 281.24 162.265 281.24 157.4H271.24H261.24C261.24 156.764 261.384 155.95 261.796 155.128C262.197 154.325 262.694 153.831 262.993 153.591L269.24 161.4ZM499.559 147.8H489.559V149.662L490.229 151.399L499.559 147.8ZM504.959 161.8L510.192 170.321L517.284 165.966L514.289 158.201L504.959 161.8ZM468.159 184.4L470.713 194.068L472.137 193.692L473.392 192.921L468.159 184.4ZM447.759 188L446.945 178.033L446.937 178.034L446.928 178.035L447.759 188ZM382.359 178.6L377.705 187.451L382.359 178.6ZM352.159 150.6L343.542 155.674L343.575 155.731L343.609 155.787L352.159 150.6ZM357.359 66.6L349.55 60.353L349.542 60.3627L357.359 66.6ZM396.759 35.2L401.138 44.1899L401.154 44.1822L401.17 44.1745L396.759 35.2ZM472.359 26.6L470.678 36.4578L470.687 36.4594L470.697 36.4609L472.359 26.6ZM498.359 33H508.359V26.3208L502.189 23.7626L498.359 33ZM498.359 85.8V95.8H508.359V85.8H498.359ZM472.759 85.8L463.625 89.8706L466.267 95.8H472.759V85.8ZM453.559 59L447.329 66.8228L447.409 66.886L447.489 66.9477L453.559 59ZM408.959 57L414.587 65.266L414.605 65.2532L414.624 65.2404L408.959 57ZM393.959 74.8L384.983 70.391L384.952 70.4548L384.921 70.5191L393.959 74.8ZM393.959 131.2L384.629 134.799L384.637 134.821L384.646 134.844L393.959 131.2ZM410.559 153.4L404.559 161.4L404.559 161.4L410.559 153.4ZM456.559 161.4L457.464 171.359L466.559 170.532V161.4H456.559ZM456.559 127.2H466.559V119.205L458.759 117.445L456.559 127.2ZM423.759 119.8L414.814 115.328L409.106 126.745L421.558 129.555L423.759 119.8ZM431.759 103.8V93.8H425.578L422.814 99.3279L431.759 103.8ZM518.559 103.8H528.559V93.8H518.559V103.8ZM518.559 118L525.138 125.531L528.559 122.542V118H518.559ZM499.559 134.6L492.979 127.069L489.559 130.058V134.6H499.559ZM499.559 147.8L490.229 151.399L495.629 165.399L504.959 161.8L514.289 158.201L508.889 144.201L499.559 147.8ZM504.959 161.8L499.725 153.279L462.925 175.879L468.159 184.4L473.392 192.921L510.192 170.321L504.959 161.8ZM468.159 184.4L465.605 174.732C459.044 176.465 452.828 177.553 446.945 178.033L447.759 188L448.572 197.967C455.756 197.38 463.14 196.069 470.713 194.068L468.159 184.4ZM447.759 188L446.928 178.035C440.844 178.542 434.191 178.8 426.959 178.8V188.8V198.8C434.659 198.8 441.873 198.525 448.589 197.965L447.759 188ZM426.959 188.8V178.8C411.536 178.8 398.309 175.688 387.012 169.749L382.359 178.6L377.705 187.451C392.275 195.112 408.782 198.8 426.959 198.8V188.8ZM382.359 178.6L387.012 169.749C375.598 163.747 366.916 155.644 360.708 145.413L352.159 150.6L343.609 155.787C351.802 169.29 363.253 179.853 377.705 187.451L382.359 178.6ZM352.159 150.6L360.775 145.526C354.696 135.202 351.559 123.384 351.559 109.8H341.559H331.559C331.559 126.616 335.488 141.998 343.542 155.674L352.159 150.6ZM341.559 109.8H351.559C351.559 96.6586 355.931 84.422 365.175 72.8373L357.359 66.6L349.542 60.3627C337.72 75.178 331.559 91.7414 331.559 109.8H341.559ZM357.359 66.6L365.167 72.8469C374.893 60.69 386.848 51.1518 401.138 44.1899L396.759 35.2L392.379 26.2101C375.469 34.4482 361.158 45.8433 349.55 60.353L357.359 66.6ZM396.759 35.2L401.17 44.1745C415.853 36.9572 429.278 33.6 441.559 33.6V23.6V13.6C425.573 13.6 409.131 17.9762 392.347 26.2255L396.759 35.2ZM441.559 23.6V33.6C449.639 33.6 459.32 34.5218 470.678 36.4578L472.359 26.6L474.039 16.7422C461.93 14.6782 451.079 13.6 441.559 13.6V23.6ZM472.359 26.6L470.697 36.4609C482.418 38.4364 490.156 40.4245 494.528 42.2374L498.359 33L502.189 23.7626C495.628 21.0421 486.033 18.7636 474.021 16.7391L472.359 26.6ZM498.359 33H488.359V85.8H498.359H508.359V33H498.359ZM498.359 85.8V75.8H472.759V85.8V95.8H498.359V85.8ZM472.759 85.8L481.893 81.7294C476.034 68.5832 468.76 58.0259 459.628 51.0523L453.559 59L447.489 66.9477C453.024 71.1741 458.55 78.4834 463.625 89.8706L472.759 85.8ZM453.559 59L459.788 51.1772C450.966 44.1526 440.938 40.4 429.959 40.4V50.4V60.4C436.046 60.4 441.751 62.3807 447.329 66.8228L453.559 59ZM429.959 50.4V40.4C420.289 40.4 411.321 43.2403 403.293 48.7596L408.959 57L414.624 65.2404C419.396 61.9597 424.428 60.4 429.959 60.4V50.4ZM408.959 57L403.331 48.734C395.471 54.0849 389.389 61.4227 384.983 70.391L393.959 74.8L402.934 79.209C405.995 72.9773 409.912 68.4484 414.587 65.266L408.959 57ZM393.959 74.8L384.921 70.5191C380.621 79.5981 378.559 89.5502 378.559 100.2H388.559H398.559C398.559 92.1831 400.097 85.2019 402.996 79.0809L393.959 74.8ZM388.559 100.2H378.559C378.559 112.602 380.531 124.175 384.629 134.799L393.959 131.2L403.289 127.601C400.186 119.558 398.559 110.465 398.559 100.2H388.559ZM393.959 131.2L384.646 134.844C388.882 145.67 395.516 154.618 404.559 161.4L410.559 153.4L416.559 145.4C410.668 140.982 406.235 135.13 403.271 127.556L393.959 131.2ZM410.559 153.4L404.559 161.4C414.04 168.511 425.446 171.8 438.159 171.8V161.8V151.8C429.005 151.8 422.01 149.489 416.559 145.4L410.559 153.4ZM438.159 161.8V171.8H444.359V161.8V151.8H438.159V161.8ZM444.359 161.8V171.8C449.67 171.8 454.086 171.666 457.464 171.359L456.559 161.4L455.653 151.441C453.165 151.667 449.447 151.8 444.359 151.8V161.8ZM456.559 161.4H466.559V127.2H456.559H446.559V161.4H456.559ZM456.559 127.2L458.759 117.445L425.959 110.045L423.759 119.8L421.558 129.555L454.358 136.955L456.559 127.2ZM423.759 119.8L432.703 124.272L440.703 108.272L431.759 103.8L422.814 99.3279L414.814 115.328L423.759 119.8ZM431.759 103.8V113.8H518.559V103.8V93.8H431.759V103.8ZM518.559 103.8H508.559V118H518.559H528.559V103.8H518.559ZM518.559 118L511.979 110.469L492.979 127.069L499.559 134.6L506.138 142.131L525.138 125.531L518.559 118ZM499.559 134.6H489.559V147.8H499.559H509.559V134.6H499.559ZM662.551 185V195H668.731L671.495 189.472L662.551 185ZM612.551 185H602.551V195H612.551V185ZM612.551 167.6H622.551V146.995L606.363 159.744L612.551 167.6ZM589.951 185.4L593.665 194.685L595.005 194.149L596.138 193.256L589.951 185.4ZM550.351 177.2L542.918 183.89L542.988 183.968L543.06 184.044L550.351 177.2ZM545.951 137.6L554.506 142.778L554.535 142.729L554.564 142.68L545.951 137.6ZM559.351 123.2V113.2H556.017L553.351 115.2L559.351 123.2ZM612.551 123.2V133.2H623.256L622.528 122.52L612.551 123.2ZM606.551 110L600.066 117.612L600.149 117.683L600.234 117.752L606.551 110ZM552.551 113.8L543.402 117.836L547.018 126.034L555.562 123.336L552.551 113.8ZM546.551 100.2L540.29 92.4024L534.302 97.2104L537.402 104.236L546.551 100.2ZM573.951 78.2L570.686 68.7481L569.044 69.3151L567.69 70.4024L573.951 78.2ZM638.951 85.4L632.718 93.2197L632.753 93.2475L632.788 93.275L638.951 85.4ZM652.751 162H642.751V168.813L649.091 171.306L652.751 162ZM670.551 169L679.495 173.472L684.384 163.695L674.211 159.694L670.551 169ZM612.551 147.2L617.608 155.827L622.551 152.929V147.2H612.551ZM612.551 139.4H622.551V129.4H612.551V139.4ZM582.151 139.4V129.4H576.267L573.409 134.544L582.151 139.4ZM580.751 142.6L590.238 145.762L590.306 145.556L590.366 145.347L580.751 142.6ZM583.351 151.8L577.437 159.864L577.56 159.954L577.685 160.04L583.351 151.8ZM662.551 185V175H612.551V185V195H662.551V185ZM612.551 185H622.551V167.6H612.551H602.551V185H612.551ZM612.551 167.6L606.363 159.744L583.763 177.544L589.951 185.4L596.138 193.256L618.738 175.456L612.551 167.6ZM589.951 185.4L586.237 176.115C585.117 176.563 583.143 177 579.951 177V187V197C584.759 197 589.451 196.37 593.665 194.685L589.951 185.4ZM579.951 187V177C567.692 177 561.094 174.033 557.642 170.356L550.351 177.2L543.06 184.044C551.875 193.434 565.009 197 579.951 197V187ZM550.351 177.2L557.784 170.51C553.509 165.76 551.351 160.173 551.351 153.2H541.351H531.351C531.351 164.894 535.193 175.306 542.918 183.89L550.351 177.2ZM541.351 153.2H551.351C551.351 149.889 552.277 146.46 554.506 142.778L545.951 137.6L537.396 132.422C533.491 138.873 531.351 145.844 531.351 153.2H541.351ZM545.951 137.6L554.564 142.68C556.834 138.832 560.318 134.974 565.351 131.2L559.351 123.2L553.351 115.2C546.65 120.226 541.201 125.968 537.337 132.52L545.951 137.6ZM559.351 123.2V133.2H612.551V123.2V113.2H559.351V123.2ZM612.551 123.2L622.528 122.52C621.993 114.673 619.154 107.37 612.868 102.248L606.551 110L600.234 117.752C601.147 118.497 602.309 119.994 602.574 123.88L612.551 123.2ZM606.551 110L613.035 102.388C607.349 97.5433 600.402 95.4 592.951 95.4V105.4V115.4C596.433 115.4 598.553 116.323 600.066 117.612L606.551 110ZM592.951 105.4V95.4C582.146 95.4 567.464 98.6036 549.539 104.264L552.551 113.8L555.562 123.336C573.104 117.796 585.356 115.4 592.951 115.4V105.4ZM552.551 113.8L561.7 109.764L555.7 96.1636L546.551 100.2L537.402 104.236L543.402 117.836L552.551 113.8ZM546.551 100.2L552.812 107.998L580.212 85.9976L573.951 78.2L567.69 70.4024L540.29 92.4024L546.551 100.2ZM573.951 78.2L577.216 87.6519C583.221 85.5773 590.858 84.4 600.351 84.4V74.4V64.4C589.31 64.4 579.347 65.756 570.686 68.7481L573.951 78.2ZM600.351 74.4V84.4C615.521 84.4 625.884 87.7724 632.718 93.2197L638.951 85.4L645.184 77.5803C633.618 68.3609 618.248 64.4 600.351 64.4V74.4ZM638.951 85.4L632.788 93.275C639.076 98.1963 642.751 105.595 642.751 117.2H652.751H662.751C662.751 100.805 657.226 87.0037 645.114 77.5249L638.951 85.4ZM652.751 117.2H642.751V162H652.751H662.751V117.2H652.751ZM652.751 162L649.091 171.306L666.891 178.306L670.551 169L674.211 159.694L656.411 152.694L652.751 162ZM670.551 169L661.607 164.528L653.607 180.528L662.551 185L671.495 189.472L679.495 173.472L670.551 169ZM592.151 154V164C600.496 164 609.086 160.823 617.608 155.827L612.551 147.2L607.494 138.573C600.549 142.644 595.539 144 592.151 144V154ZM612.551 147.2H622.551V139.4H612.551H602.551V147.2H612.551ZM612.551 139.4V129.4H582.151V139.4V149.4H612.551V139.4ZM582.151 139.4L573.409 134.544C572.511 136.16 571.678 137.953 571.136 139.853L580.751 142.6L590.366 145.347C590.355 145.385 590.374 145.31 590.462 145.108C590.549 144.91 590.686 144.628 590.892 144.256L582.151 139.4ZM580.751 142.6L571.264 139.438C570.519 141.673 570.351 143.941 570.351 145.8H580.351H590.351C590.351 145.632 590.355 145.501 590.36 145.405C590.366 145.308 590.372 145.255 590.374 145.24C590.375 145.226 590.371 145.263 590.354 145.345C590.336 145.427 590.302 145.57 590.238 145.762L580.751 142.6ZM580.351 145.8H570.351C570.351 151.438 572.804 156.466 577.437 159.864L583.351 151.8L589.264 143.736C589.404 143.838 589.76 144.157 590.045 144.728C590.327 145.291 590.351 145.722 590.351 145.8H580.351ZM583.351 151.8L577.685 160.04C582.122 163.09 587.403 164 592.351 164V154V144C589.566 144 588.846 143.443 589.016 143.56L583.351 151.8ZM592.351 154V144H592.151V154V164H592.351V154ZM734.232 147.2L727.274 154.382L727.329 154.436L727.385 154.488L734.232 147.2ZM736.032 174.6L728.439 168.092L728.371 168.172L728.305 168.253L736.032 174.6ZM724.432 183.6L728.801 192.595L728.801 192.595L724.432 183.6ZM694.432 180.8L701.279 173.512L701.279 173.512L694.432 180.8ZM692.432 153.6L684.728 147.224L684.716 147.238L684.705 147.253L692.432 153.6ZM717.832 141V151C722.247 151 725.107 152.283 727.274 154.382L734.232 147.2L741.19 140.018C734.824 133.85 726.751 131 717.832 131V141ZM734.232 147.2L727.385 154.488C729.737 156.698 730.832 159.177 730.832 162.6H740.832H750.832C750.832 153.756 747.527 145.969 741.079 139.912L734.232 147.2ZM740.832 162.6H730.832C730.832 164.12 730.337 165.878 728.439 168.092L736.032 174.6L743.625 181.108C748.127 175.855 750.832 169.613 750.832 162.6H740.832ZM736.032 174.6L728.305 168.253C726.22 170.791 723.53 172.921 720.063 174.605L724.432 183.6L728.801 192.595C734.668 189.746 739.711 185.876 743.759 180.947L736.032 174.6ZM724.432 183.6L720.063 174.605C716.516 176.328 713.47 177 710.832 177V187V197C716.994 197 723.015 195.405 728.801 192.595L724.432 183.6ZM710.832 187V177C706.614 177 703.664 175.752 701.279 173.512L694.432 180.8L687.585 188.088C694 194.114 701.983 197 710.832 197V187ZM694.432 180.8L701.279 173.512C698.877 171.255 697.832 168.82 697.832 165.6H687.832H677.832C677.832 174.38 681.187 182.078 687.585 188.088L694.432 180.8ZM687.832 165.6H697.832C697.832 163.953 698.356 162.142 700.159 159.947L692.432 153.6L684.705 147.253C680.375 152.524 677.832 158.713 677.832 165.6H687.832ZM692.432 153.6L700.136 159.976C702.393 157.248 705.176 155.059 708.601 153.395L704.232 144.4L699.863 135.405C693.955 138.275 688.871 142.219 684.728 147.224L692.432 153.6ZM704.232 144.4L708.601 153.395C712.148 151.672 715.194 151 717.832 151V141V131C711.67 131 705.649 132.595 699.863 135.405L704.232 144.4ZM896.871 185V195H903.051L905.815 189.472L896.871 185ZM846.871 185H836.871V195H846.871V185ZM846.871 169.8H856.871V148.927L840.605 162.007L846.871 169.8ZM827.471 185.4L829.896 195.101L832.027 194.569L833.738 193.193L827.471 185.4ZM789.071 180.2L783.487 188.496L783.579 188.557L783.672 188.617L789.071 180.2ZM772.671 161.2L763.64 165.494L763.682 165.583L763.727 165.672L772.671 161.2ZM777.471 104.4L785.402 110.492L785.402 110.492L777.471 104.4ZM804.071 82.6L808.543 91.5443L808.588 91.522L808.632 91.4993L804.071 82.6ZM846.871 77.2L842.399 86.1443L856.871 93.3803V77.2H846.871ZM846.871 54H856.871V48.5808L852.331 45.622L846.871 54ZM829.071 42.4H819.071V47.8192L823.611 50.778L829.071 42.4ZM829.071 28.2L825.185 18.9861L819.071 21.5648V28.2H829.071ZM871.271 10.4V0.399995H869.248L867.385 1.18611L871.271 10.4ZM886.871 10.4H896.871V0.399995H886.871V10.4ZM886.871 163.4H876.871V170.762L883.9 172.949L886.871 163.4ZM904.871 169L913.815 173.472L919.078 162.947L907.842 159.451L904.871 169ZM847.071 149.8L851.238 158.891L857.071 156.217V149.8H847.071ZM847.071 116.2H857.071V115.298L856.91 114.411L847.071 116.2ZM839.871 105.4L845.606 97.2077L845.606 97.2077L839.871 105.4ZM813.271 146L804.459 150.728L804.459 150.728L813.271 146ZM896.871 185V175H846.871V185V195H896.871V185ZM846.871 185H856.871V169.8H846.871H836.871V185H846.871ZM846.871 169.8L840.605 162.007L821.205 177.607L827.471 185.4L833.738 193.193L853.138 177.593L846.871 169.8ZM827.471 185.4L825.046 175.699C821.737 176.526 817.709 177 812.871 177V187V197C818.967 197 824.672 196.407 829.896 195.101L827.471 185.4ZM812.871 187V177C805.888 177 799.846 175.232 794.471 171.783L789.071 180.2L783.672 188.617C792.429 194.235 802.254 197 812.871 197V187ZM789.071 180.2L794.655 171.904C789.253 168.268 784.9 163.297 781.615 156.728L772.671 161.2L763.727 165.672C768.442 175.103 775.022 182.798 783.487 188.496L789.071 180.2ZM772.671 161.2L781.702 156.906C778.533 150.239 776.871 142.725 776.871 134.2H766.871H756.871C756.871 145.408 759.076 155.895 763.64 165.494L772.671 161.2ZM766.871 134.2H776.871C776.871 125.933 779.552 118.107 785.402 110.492L777.471 104.4L769.541 98.3084C761.257 109.093 756.871 121.134 756.871 134.2H766.871ZM777.471 104.4L785.402 110.492C791.52 102.526 799.191 96.2203 808.543 91.5443L804.071 82.6L799.599 73.6557C787.618 79.6464 777.556 87.8738 769.541 98.3084L777.471 104.4ZM804.071 82.6L808.632 91.4993C818.165 86.6136 826.943 84.4 835.071 84.4V74.4V64.4C823.2 64.4 811.31 67.6531 799.51 73.7007L804.071 82.6ZM835.071 74.4V84.4C837.636 84.4 840.04 84.9648 842.399 86.1443L846.871 77.2L851.343 68.2557C846.236 65.7019 840.773 64.4 835.071 64.4V74.4ZM846.871 77.2H856.871V54H846.871H836.871V77.2H846.871ZM846.871 54L852.331 45.622L834.531 34.022L829.071 42.4L823.611 50.778L841.411 62.378L846.871 54ZM829.071 42.4H839.071V28.2H829.071H819.071V42.4H829.071ZM829.071 28.2L832.958 37.4139L875.158 19.6139L871.271 10.4L867.385 1.18611L825.185 18.9861L829.071 28.2ZM871.271 10.4V20.4H886.871V10.4V0.399995H871.271V10.4ZM886.871 10.4H876.871V163.4H886.871H896.871V10.4H886.871ZM886.871 163.4L883.9 172.949L901.9 178.549L904.871 169L907.842 159.451L889.842 153.851L886.871 163.4ZM904.871 169L895.927 164.528L887.927 180.528L896.871 185L905.815 189.472L913.815 173.472L904.871 169ZM826.671 154.2V164.2C835.276 164.2 843.5 162.437 851.238 158.891L847.071 149.8L842.905 140.709C837.842 143.03 832.467 144.2 826.671 144.2V154.2ZM847.071 149.8H857.071V116.2H847.071H837.071V149.8H847.071ZM847.071 116.2L856.91 114.411C855.593 107.169 851.546 101.366 845.606 97.2077L839.871 105.4L834.136 113.592C836.196 115.034 836.949 116.431 837.232 117.989L847.071 116.2ZM839.871 105.4L845.606 97.2077C839.354 92.8311 831.626 91.2 823.471 91.2V101.2V111.2C829.183 111.2 832.389 112.369 834.136 113.592L839.871 105.4ZM823.471 101.2V91.2C815.359 91.2 808.385 94.7779 804.017 101.839C800.139 108.108 798.871 116.227 798.871 124.8H808.871H818.871C818.871 117.64 820.037 113.959 821.025 112.361C821.429 111.708 821.717 111.538 821.827 111.478C821.96 111.407 822.405 111.2 823.471 111.2V101.2ZM808.871 124.8H798.871C798.871 134.498 800.498 143.346 804.459 150.728L813.271 146L822.083 141.272C820.177 137.721 818.871 132.436 818.871 124.8H808.871ZM813.271 146L804.459 150.728C806.59 154.699 809.537 158.186 813.494 160.644C817.481 163.121 821.926 164.2 826.471 164.2V154.2V144.2C825.149 144.2 824.461 143.912 824.048 143.656C823.605 143.38 822.885 142.767 822.083 141.272L813.271 146ZM826.471 154.2V164.2H826.671V154.2V144.2H826.471V154.2ZM1028.29 91L1020.24 96.922L1028.29 91ZM1039.89 138.2V148.2H1049.7L1049.89 138.396L1039.89 138.2ZM969.295 138.2V128.2H956.351L959.618 140.724L969.295 138.2ZM977.295 152.8L970.353 159.998L970.421 160.064L970.49 160.128L977.295 152.8ZM1033.89 147.6L1043.04 143.564L1039.25 134.966L1030.43 138.218L1033.89 147.6ZM1039.89 161.2L1046.16 168.998L1052.14 164.19L1049.04 157.164L1039.89 161.2ZM1012.49 183.2L1015.19 192.831L1017.16 192.28L1018.76 190.998L1012.49 183.2ZM951.895 180.2L946.918 188.874L947.002 188.922L947.086 188.968L951.895 180.2ZM932.695 161.2L923.96 166.069L924.007 166.154L924.057 166.239L932.695 161.2ZM936.495 104.4L944.425 110.492L944.425 110.492L936.495 104.4ZM963.095 82.6L967.567 91.5443L967.611 91.522L967.655 91.4993L963.095 82.6ZM972.095 106.4L980.056 112.451L980.113 112.376L980.168 112.3L972.095 106.4ZM967.895 122L957.902 121.623L957.51 132H967.895V122ZM1000.89 122V132H1011.88L1010.85 121.061L1000.89 122ZM995.695 106.4L987.915 112.683L987.976 112.758L988.037 112.832L995.695 106.4ZM993.895 74.4V84.4C1005.8 84.4 1014.15 88.6426 1020.24 96.922L1028.29 91L1036.35 85.0779C1026.17 71.2241 1011.59 64.4 993.895 64.4V74.4ZM1028.29 91L1020.24 96.922C1026.57 105.542 1030.27 118.781 1029.9 138.004L1039.89 138.2L1049.89 138.396C1050.32 116.819 1046.28 98.5916 1036.35 85.0779L1028.29 91ZM1039.89 138.2V128.2H969.295V138.2V148.2H1039.89V138.2ZM969.295 138.2L959.618 140.724C961.579 148.242 965.029 154.865 970.353 159.998L977.295 152.8L984.236 145.602C982.093 143.535 980.21 140.425 978.971 135.676L969.295 138.2ZM977.295 152.8L970.49 160.128C976.309 165.531 983.579 168 991.495 168V158V148C987.944 148 985.747 147.002 984.099 145.472L977.295 152.8ZM991.495 158V168C1002.85 168 1018.4 163.972 1037.35 156.982L1033.89 147.6L1030.43 138.218C1011.79 145.095 999.071 148 991.495 148V158ZM1033.89 147.6L1024.75 151.636L1030.75 165.236L1039.89 161.2L1049.04 157.164L1043.04 143.564L1033.89 147.6ZM1039.89 161.2L1033.63 153.402L1006.23 175.402L1012.49 183.2L1018.76 190.998L1046.16 168.998L1039.89 161.2ZM1012.49 183.2L1009.8 173.569C1001.86 175.79 991.943 177 979.895 177V187V197C993.179 197 1005 195.677 1015.19 192.831L1012.49 183.2ZM979.895 187V177C970.998 177 963.348 175.076 956.703 171.432L951.895 180.2L947.086 188.968C956.974 194.391 967.991 197 979.895 197V187ZM951.895 180.2L956.871 171.526C950.235 167.719 945.106 162.631 941.332 156.161L932.695 161.2L924.057 166.239C929.616 175.769 937.287 183.348 946.918 188.874L951.895 180.2ZM932.695 161.2L941.429 156.331C937.775 149.776 935.895 142.468 935.895 134.2H925.895H915.895C915.895 145.666 918.547 156.357 923.96 166.069L932.695 161.2ZM925.895 134.2H935.895C935.895 125.933 938.576 118.107 944.425 110.492L936.495 104.4L928.564 98.3084C920.28 109.093 915.895 121.134 915.895 134.2H925.895ZM936.495 104.4L944.425 110.492C950.543 102.526 958.215 96.2203 967.567 91.5443L963.095 82.6L958.622 73.6557C946.641 79.6464 936.579 87.8738 928.564 98.3084L936.495 104.4ZM963.095 82.6L967.655 91.4993C977.189 86.6136 985.966 84.4 994.095 84.4V74.4V64.4C982.223 64.4 970.334 67.6531 958.534 73.7007L963.095 82.6ZM994.095 74.4V64.4H993.895V74.4V84.4H994.095V74.4ZM983.295 101.2V91.2C975.714 91.2 968.737 94.0465 964.021 100.5L972.095 106.4L980.168 112.3C980.519 111.82 981.008 111.2 983.295 111.2V101.2ZM972.095 106.4L964.133 100.349C959.76 106.103 958.198 113.773 957.902 121.623L967.895 122L977.887 122.377C978.125 116.093 979.363 113.363 980.056 112.451L972.095 106.4ZM967.895 122V132H1000.89V122V112H967.895V122ZM1000.89 122L1010.85 121.061C1010.1 113.133 1008.05 105.558 1003.35 99.9681L995.695 106.4L988.037 112.832C988.942 113.908 990.353 116.734 990.939 122.939L1000.89 122ZM995.695 106.4L1003.47 100.117C998.3 93.7112 990.869 91.2 983.095 91.2V101.2V111.2C986.52 111.2 987.489 112.156 987.915 112.683L995.695 106.4ZM983.095 101.2V111.2H983.295V101.2V91.2H983.095V101.2ZM1189.87 90.6L1198.64 95.4106L1199.87 93.1634V90.6H1189.87ZM1138.07 185V195H1143.99L1146.84 189.811L1138.07 185ZM1106.87 185L1097.62 188.801L1100.17 195H1106.87V185ZM1078.27 115.4L1087.52 111.599L1086.24 108.471L1083.32 106.765L1078.27 115.4ZM1058.07 103.6H1048.07V109.34L1053.03 112.235L1058.07 103.6ZM1058.07 89.4L1054.9 79.9169L1048.07 82.2015V89.4H1058.07ZM1108.27 72.6L1117.97 70.1595L1115.34 59.6911L1105.1 63.1169L1108.27 72.6ZM1115.87 102.8L1106.18 105.24L1106.36 105.952L1106.64 106.63L1115.87 102.8ZM1136.27 152L1127.04 155.83L1135.13 175.349L1145.09 156.715L1136.27 152ZM1157.87 111.6L1166.69 116.315L1171.04 108.186L1163.29 103.194L1157.87 111.6ZM1128.07 92.4L1119.13 87.9279L1115.12 95.9491L1122.66 100.806L1128.07 92.4ZM1136.07 76.4V66.4H1129.89L1127.13 71.9279L1136.07 76.4ZM1189.87 76.4H1199.87V66.4H1189.87V76.4ZM1189.87 90.6L1181.11 85.7894L1129.31 180.189L1138.07 185L1146.84 189.811L1198.64 95.4106L1189.87 90.6ZM1138.07 185V175H1106.87V185V195H1138.07V185ZM1106.87 185L1116.12 181.199L1087.52 111.599L1078.27 115.4L1069.02 119.201L1097.62 188.801L1106.87 185ZM1078.27 115.4L1083.32 106.765L1063.12 94.9653L1058.07 103.6L1053.03 112.235L1073.23 124.035L1078.27 115.4ZM1058.07 103.6H1068.07V89.4H1058.07H1048.07V103.6H1058.07ZM1058.07 89.4L1061.25 98.883L1111.45 82.083L1108.27 72.6L1105.1 63.1169L1054.9 79.9169L1058.07 89.4ZM1108.27 72.6L1098.58 75.0405L1106.18 105.24L1115.87 102.8L1125.57 100.36L1117.97 70.1595L1108.27 72.6ZM1115.87 102.8L1106.64 106.63L1127.04 155.83L1136.27 152L1145.51 148.17L1125.11 98.9698L1115.87 102.8ZM1136.27 152L1145.09 156.715L1166.69 116.315L1157.87 111.6L1149.06 106.885L1127.46 147.285L1136.27 152ZM1157.87 111.6L1163.29 103.194L1133.49 83.9937L1128.07 92.4L1122.66 100.806L1152.46 120.006L1157.87 111.6ZM1128.07 92.4L1137.02 96.8721L1145.02 80.8721L1136.07 76.4L1127.13 71.9279L1119.13 87.9279L1128.07 92.4ZM1136.07 76.4V86.4H1189.87V76.4V66.4H1136.07V76.4ZM1189.87 76.4H1179.87V90.6H1189.87H1199.87V76.4H1189.87Z" fill="#BBFFC0" mask="url(#path-1-outside-1_3_2)"/>
</g>
<defs>
<filter id="filter0_d_3_2" x="0.136719" y="0.399994" width="1203.74" height="206.6" filterUnits="userSpaceOnUse" color-interpolation-filters="sRGB">
<feFlood flood-opacity="0" result="BackgroundImageFix"/>
<feColorMatrix in="SourceAlpha" type="matrix" values="0 0 0 0 0 0 0 0 0 0 0 0 0 0 0 0 0 0 127 0" result="hardAlpha"/>
<feOffset dy="4"/>
<feGaussianBlur stdDeviation="2"/>
<feComposite in2="hardAlpha" operator="out"/>
<feColorMatrix type="matrix" values="0 0 0 0 0 0 0 0 0 0 0 0 0 0 0 0 0 0 0.25 0"/>
<feBlend mode="normal" in2="BackgroundImageFix" result="effect1_dropShadow_3_2"/>
<feBlend mode="normal" in="SourceGraphic" in2="effect1_dropShadow_3_2" result="shape"/>
</filter>
</defs>
</svg>
