<svg xmlns="http://www.w3.org/2000/svg" xmlns:xlink="http://www.w3.org/1999/xlink" width="1920" zoomAndPan="magnify" viewBox="96 388 1747 346" height="1080" preserveAspectRatio="xMidYMid meet" version="1.2">
  <defs />
  <g id="5afce006a0">
    <g style="fill:#00bf63;fill-opacity:0.4;">
      <g transform="translate(128.161759, 496.506801)">
        <path style="stroke:none" d="M 96.359375 -151.21875 C 109.796875 -151.21875 120.691406 -149.492188 129.046875 -146.046875 C 137.410156 -142.609375 144.019531 -137.296875 148.875 -130.109375 C 152 -125.265625 154.421875 -119.796875 156.140625 -113.703125 C 157.859375 -107.609375 158.71875 -100.578125 158.71875 -92.609375 C 158.71875 -85.722656 158.09375 -78.84375 156.84375 -71.96875 C 155.59375 -65.09375 153.832031 -58.488281 151.5625 -52.15625 C 149.300781 -45.832031 146.566406 -39.894531 143.359375 -34.34375 C 140.148438 -28.789062 136.59375 -23.90625 132.6875 -19.6875 C 125.34375 -11.71875 116.863281 -6.128906 107.25 -2.921875 C 97.644531 0.273438 85.804688 1.875 71.734375 1.875 C 58.140625 1.875 47.195312 0.46875 38.90625 -2.34375 C 30.625 -5.15625 24.0625 -9.6875 19.21875 -15.9375 C 15.78125 -20.3125 13.082031 -25.859375 11.125 -32.578125 C 9.175781 -39.304688 8.203125 -47.75 8.203125 -57.90625 C 8.203125 -75.25 11.285156 -90.757812 17.453125 -104.4375 C 23.628906 -118.113281 32.425781 -128.9375 43.84375 -136.90625 C 50.71875 -141.75 58.375 -145.34375 66.8125 -147.6875 C 75.25 -150.039062 85.097656 -151.21875 96.359375 -151.21875 Z M 69.859375 -14.53125 C 73.453125 -14.53125 76.847656 -16.128906 80.046875 -19.328125 C 83.253906 -22.535156 86.226562 -26.835938 88.96875 -32.234375 C 91.707031 -37.628906 94.207031 -43.765625 96.46875 -50.640625 C 98.738281 -57.515625 100.65625 -64.625 102.21875 -71.96875 C 103.78125 -79.3125 104.988281 -86.617188 105.84375 -93.890625 C 106.707031 -101.160156 107.140625 -107.765625 107.140625 -113.703125 C 107.140625 -121.828125 106.316406 -127.410156 104.671875 -130.453125 C 103.035156 -133.503906 100.65625 -135.03125 97.53125 -135.03125 C 93.9375 -135.03125 90.492188 -133.46875 87.203125 -130.34375 C 83.921875 -127.21875 80.832031 -123.035156 77.9375 -117.796875 C 75.050781 -112.566406 72.472656 -106.550781 70.203125 -99.75 C 67.941406 -92.957031 65.988281 -85.960938 64.34375 -78.765625 C 62.707031 -71.578125 61.457031 -64.46875 60.59375 -57.4375 C 59.738281 -50.40625 59.3125 -43.921875 59.3125 -37.984375 C 59.3125 -29.066406 60.285156 -22.925781 62.234375 -19.5625 C 64.191406 -16.207031 66.734375 -14.53125 69.859375 -14.53125 Z M 69.859375 -14.53125 " />
      </g>
    </g>
    <g style="fill:#00bf63;fill-opacity:0.4;">
      <g transform="translate(322.505014, 496.506801)">
        <path style="stroke:none" d="M 71.96875 -71.265625 C 72.125 -72.046875 72.28125 -72.828125 72.4375 -73.609375 C 72.59375 -74.390625 72.671875 -75.25 72.671875 -76.1875 C 72.671875 -79 72.160156 -81.613281 71.140625 -84.03125 C 70.128906 -86.457031 68.140625 -87.671875 65.171875 -87.671875 C 62.515625 -87.671875 59.859375 -86.535156 57.203125 -84.265625 C 54.546875 -82.003906 53.21875 -79 53.21875 -75.25 C 53.21875 -72.75 53.878906 -70.753906 55.203125 -69.265625 C 56.535156 -67.785156 58.296875 -66.578125 60.484375 -65.640625 C 62.671875 -64.703125 65.128906 -63.921875 67.859375 -63.296875 C 70.597656 -62.671875 73.296875 -62.046875 75.953125 -61.421875 C 79.703125 -60.484375 83.257812 -59.347656 86.625 -58.015625 C 89.988281 -56.691406 93 -54.9375 95.65625 -52.75 C 98.3125 -50.5625 100.421875 -47.863281 101.984375 -44.65625 C 103.546875 -41.457031 104.328125 -37.515625 104.328125 -32.828125 C 104.328125 -26.253906 102.800781 -20.738281 99.75 -16.28125 C 96.707031 -11.832031 92.488281 -8.238281 87.09375 -5.5 C 81.695312 -2.769531 75.363281 -0.859375 68.09375 0.234375 C 60.832031 1.328125 53.0625 1.875 44.78125 1.875 C 32.113281 1.875 21.640625 0.9375 13.359375 -0.9375 C 5.078125 -2.8125 -0.703125 -4.609375 -3.984375 -6.328125 L 0.9375 -29.78125 L 32.59375 -29.78125 C 32.4375 -28.988281 32.359375 -28.238281 32.359375 -27.53125 C 32.359375 -26.832031 32.359375 -26.09375 32.359375 -25.3125 C 32.359375 -21.71875 33.175781 -18.863281 34.8125 -16.75 C 36.457031 -14.644531 39.3125 -13.59375 43.375 -13.59375 C 47.90625 -13.59375 51.144531 -14.878906 53.09375 -17.453125 C 55.050781 -20.035156 56.03125 -22.421875 56.03125 -24.609375 C 56.03125 -26.796875 55.207031 -28.710938 53.5625 -30.359375 C 51.925781 -32.003906 49.859375 -33.410156 47.359375 -34.578125 C 44.859375 -35.753906 42.082031 -36.769531 39.03125 -37.625 C 35.988281 -38.488281 33.0625 -39.3125 30.25 -40.09375 C 28.207031 -40.5625 25.894531 -41.34375 23.3125 -42.4375 C 20.738281 -43.53125 18.28125 -45.09375 15.9375 -47.125 C 13.59375 -49.15625 11.640625 -51.769531 10.078125 -54.96875 C 8.515625 -58.175781 7.734375 -62.203125 7.734375 -67.046875 C 7.734375 -73.921875 9.410156 -79.664062 12.765625 -84.28125 C 16.128906 -88.894531 20.507812 -92.609375 25.90625 -95.421875 C 31.300781 -98.234375 37.394531 -100.265625 44.1875 -101.515625 C 50.988281 -102.765625 57.828125 -103.390625 64.703125 -103.390625 C 73.296875 -103.390625 81.421875 -102.609375 89.078125 -101.046875 C 96.742188 -99.484375 103 -97.453125 107.84375 -94.953125 L 102.453125 -71.265625 Z M 71.96875 -71.265625 " />
      </g>
    </g>
    <g style="fill:#00bf63;fill-opacity:0.4;">
      <g transform="translate(468.086677, 496.506801)">
        <path style="stroke:none" d="M 83.21875 -67.984375 L 143.9375 -67.984375 L 130.34375 0 L 102.6875 0 L 98.234375 -15 L 97.296875 -15 C 93.234375 -10.3125 88.425781 -6.328125 82.875 -3.046875 C 77.320312 0.234375 70.09375 1.875 61.1875 1.875 C 54.3125 1.875 47.707031 0.742188 41.375 -1.515625 C 35.050781 -3.785156 29.425781 -7.378906 24.5 -12.296875 C 19.570312 -17.222656 15.625 -23.671875 12.65625 -31.640625 C 9.6875 -39.617188 8.203125 -49.234375 8.203125 -60.484375 C 8.203125 -72.671875 10.078125 -84.234375 13.828125 -95.171875 C 17.578125 -106.117188 23.203125 -115.769531 30.703125 -124.125 C 38.210938 -132.488281 47.59375 -139.09375 58.84375 -143.9375 C 70.09375 -148.789062 83.222656 -151.21875 98.234375 -151.21875 C 109.796875 -151.21875 119.875 -149.882812 128.46875 -147.21875 C 137.0625 -144.5625 145.191406 -141.59375 152.859375 -138.3125 L 143.9375 -92.84375 L 104.328125 -92.84375 C 104.484375 -94.5625 104.71875 -96.59375 105.03125 -98.9375 C 105.34375 -101.28125 105.578125 -103.738281 105.734375 -106.3125 C 105.890625 -108.894531 106.046875 -111.4375 106.203125 -113.9375 C 106.359375 -116.4375 106.4375 -118.625 106.4375 -120.5 C 106.4375 -121.75 106.359375 -123.191406 106.203125 -124.828125 C 106.046875 -126.472656 105.65625 -128.078125 105.03125 -129.640625 C 104.40625 -131.203125 103.46875 -132.488281 102.21875 -133.5 C 100.96875 -134.519531 99.171875 -135.03125 96.828125 -135.03125 C 92.765625 -135.03125 89.050781 -133.347656 85.6875 -129.984375 C 82.320312 -126.628906 79.3125 -122.175781 76.65625 -116.625 C 74 -111.082031 71.691406 -104.789062 69.734375 -97.75 C 67.785156 -90.71875 66.144531 -83.566406 64.8125 -76.296875 C 63.488281 -69.035156 62.472656 -61.925781 61.765625 -54.96875 C 61.066406 -48.019531 60.71875 -41.96875 60.71875 -36.8125 C 60.71875 -35.25 60.796875 -33.289062 60.953125 -30.9375 C 61.109375 -28.59375 61.613281 -26.285156 62.46875 -24.015625 C 63.332031 -21.753906 64.582031 -19.800781 66.21875 -18.15625 C 67.863281 -16.519531 70.25 -15.703125 73.375 -15.703125 C 78.53125 -15.703125 83.53125 -18.515625 88.375 -24.140625 C 93.226562 -29.773438 96.90625 -39.15625 99.40625 -52.28125 L 79.703125 -52.28125 Z M 83.21875 -67.984375 " />
      </g>
    </g>
    <g style="fill:#00bf63;fill-opacity:0.4;">
      <g transform="translate(652.349458, 496.506801)">
        <path style="stroke:none" d="M 16.875 -92.140625 C 24.84375 -96.046875 33.007812 -98.894531 41.375 -100.6875 C 49.738281 -102.488281 59.078125 -103.390625 69.390625 -103.390625 C 79.390625 -103.390625 87.671875 -102.609375 94.234375 -101.046875 C 100.804688 -99.484375 106.046875 -97.21875 109.953125 -94.25 C 113.859375 -91.28125 116.59375 -87.757812 118.15625 -83.6875 C 119.71875 -79.625 120.5 -75.015625 120.5 -69.859375 C 120.5 -66.890625 120.300781 -63.6875 119.90625 -60.25 C 119.519531 -56.8125 119.09375 -53.921875 118.625 -51.578125 L 107.609375 0 L 69.859375 0 L 65.640625 -15 L 64.234375 -15 C 59.234375 -9.53125 53.410156 -5.347656 46.765625 -2.453125 C 40.128906 0.429688 33.523438 1.875 26.953125 1.875 C 23.203125 1.875 19.53125 1.328125 15.9375 0.234375 C 12.34375 -0.859375 9.140625 -2.535156 6.328125 -4.796875 C 3.515625 -7.066406 1.25 -9.957031 -0.46875 -13.46875 C -2.1875 -16.988281 -3.046875 -21.25 -3.046875 -26.25 C -3.046875 -34.382812 -0.820312 -40.832031 3.625 -45.59375 C 8.082031 -50.363281 13.945312 -53.957031 21.21875 -56.375 C 28.488281 -58.800781 36.691406 -60.328125 45.828125 -60.953125 C 54.972656 -61.578125 64.15625 -61.890625 73.375 -61.890625 C 73.6875 -63.453125 74.078125 -65.675781 74.546875 -68.5625 C 75.015625 -71.457031 75.25 -74 75.25 -76.1875 C 75.25 -79 74.503906 -81.613281 73.015625 -84.03125 C 71.535156 -86.457031 68.453125 -87.671875 63.765625 -87.671875 C 58.296875 -87.671875 54.269531 -86.066406 51.6875 -82.859375 C 49.113281 -79.660156 47.4375 -75.796875 46.65625 -71.265625 L 12.421875 -71.265625 Z M 70.796875 -50.875 L 66.578125 -50.875 C 62.046875 -50.875 58.175781 -50.285156 54.96875 -49.109375 C 51.769531 -47.941406 49.191406 -46.421875 47.234375 -44.546875 C 45.285156 -42.671875 43.84375 -40.5625 42.90625 -38.21875 C 41.96875 -35.875 41.5 -33.53125 41.5 -31.1875 C 41.5 -27.425781 42.472656 -24.609375 44.421875 -22.734375 C 46.378906 -20.859375 48.6875 -19.921875 51.34375 -19.921875 C 54.625 -19.921875 57.863281 -21.09375 61.0625 -23.4375 C 64.269531 -25.78125 66.265625 -28.910156 67.046875 -32.828125 Z M 70.796875 -50.875 " />
      </g>
    </g>
    <g style="fill:#00bf63;fill-opacity:0.4;">
      <g transform="translate(815.5134, 496.506801)">
        <path style="stroke:none" d="M 47.59375 -20.625 C 47.59375 -17.03125 46.847656 -13.828125 45.359375 -11.015625 C 43.878906 -8.203125 41.925781 -5.859375 39.5 -3.984375 C 37.082031 -2.109375 34.304688 -0.664062 31.171875 0.34375 C 28.046875 1.363281 24.765625 1.875 21.328125 1.875 C 15.390625 1.875 10.347656 0.273438 6.203125 -2.921875 C 2.066406 -6.128906 0 -11.171875 0 -18.046875 C 0 -21.640625 0.703125 -24.84375 2.109375 -27.65625 C 3.515625 -30.476562 5.390625 -32.828125 7.734375 -34.703125 C 10.078125 -36.578125 12.769531 -38.019531 15.8125 -39.03125 C 18.863281 -40.050781 22.03125 -40.5625 25.3125 -40.5625 C 31.726562 -40.5625 37.046875 -38.957031 41.265625 -35.75 C 45.484375 -32.550781 47.59375 -27.507812 47.59375 -20.625 Z M 47.59375 -20.625 " />
      </g>
    </g>
    <g style="fill:#00bf63;fill-opacity:0.4;">
      <g transform="translate(913.505582, 496.506801)">
        <path style="stroke:none" d="M 97.53125 -157.546875 L 145.578125 -157.546875 L 112.0625 0 L 74.078125 0 L 69.859375 -15 L 68.21875 -15 C 67.28125 -13.59375 65.832031 -11.910156 63.875 -9.953125 C 61.925781 -8.003906 59.46875 -6.128906 56.5 -4.328125 C 53.53125 -2.535156 50.015625 -1.054688 45.953125 0.109375 C 41.890625 1.285156 37.203125 1.875 31.890625 1.875 C 26.410156 1.875 21.753906 1.054688 17.921875 -0.578125 C 14.097656 -2.222656 10.972656 -4.453125 8.546875 -7.265625 C 6.128906 -10.078125 4.375 -13.472656 3.28125 -17.453125 C 2.1875 -21.441406 1.640625 -25.785156 1.640625 -30.484375 C 1.640625 -32.515625 1.796875 -35.753906 2.109375 -40.203125 C 2.421875 -44.660156 3.160156 -49.582031 4.328125 -54.96875 C 5.503906 -60.363281 7.222656 -65.910156 9.484375 -71.609375 C 11.753906 -77.316406 14.800781 -82.515625 18.625 -87.203125 C 22.457031 -91.898438 27.1875 -95.769531 32.8125 -98.8125 C 38.445312 -101.863281 45.25 -103.390625 53.21875 -103.390625 C 55.71875 -103.390625 58.375 -103.15625 61.1875 -102.6875 C 64 -102.21875 66.691406 -101.359375 69.265625 -100.109375 C 71.847656 -98.859375 74.15625 -97.0625 76.1875 -94.71875 C 78.21875 -92.375 79.703125 -89.320312 80.640625 -85.5625 L 82.28125 -85.5625 Z M 68.921875 -80.40625 C 65.171875 -80.40625 62.046875 -78.332031 59.546875 -74.1875 C 57.046875 -70.050781 55.015625 -65.25 53.453125 -59.78125 C 51.890625 -54.3125 50.753906 -48.84375 50.046875 -43.375 C 49.347656 -37.90625 49 -33.84375 49 -31.1875 C 49 -28.050781 49.46875 -25.425781 50.40625 -23.3125 C 51.34375 -21.207031 53.140625 -20.15625 55.796875 -20.15625 C 57.359375 -20.15625 58.878906 -20.503906 60.359375 -21.203125 C 61.847656 -21.910156 63.253906 -22.769531 64.578125 -23.78125 C 65.910156 -24.800781 67.046875 -25.859375 67.984375 -26.953125 C 68.921875 -28.046875 69.703125 -28.988281 70.328125 -29.78125 L 79.46875 -72.4375 C 78.375 -74.15625 76.925781 -75.910156 75.125 -77.703125 C 73.332031 -79.503906 71.265625 -80.40625 68.921875 -80.40625 Z M 68.921875 -80.40625 " />
      </g>
    </g>
    <g style="fill:#00bf63;fill-opacity:0.4;">
      <g transform="translate(1082.530296, 496.506801)">
        <path style="stroke:none" d="M 51.109375 -47.125 C 50.484375 -43.6875 50.050781 -40.40625 49.8125 -37.28125 C 49.582031 -34.15625 49.46875 -31.335938 49.46875 -28.828125 C 49.46875 -27.421875 49.546875 -25.859375 49.703125 -24.140625 C 49.859375 -22.421875 50.207031 -20.816406 50.75 -19.328125 C 51.300781 -17.847656 52.082031 -16.597656 53.09375 -15.578125 C 54.113281 -14.566406 55.5625 -14.0625 57.4375 -14.0625 C 58.84375 -14.0625 60.441406 -14.53125 62.234375 -15.46875 C 64.035156 -16.40625 65.832031 -17.734375 67.625 -19.453125 C 69.425781 -21.171875 71.144531 -23.28125 72.78125 -25.78125 C 74.425781 -28.289062 75.71875 -31.109375 76.65625 -34.234375 L 115.109375 -34.234375 L 109.015625 -9.140625 C 105.890625 -7.109375 102.296875 -5.390625 98.234375 -3.984375 C 94.171875 -2.578125 89.867188 -1.441406 85.328125 -0.578125 C 80.796875 0.273438 76.1875 0.894531 71.5 1.28125 C 66.8125 1.675781 62.359375 1.875 58.140625 1.875 C 50.328125 1.875 43.054688 1.171875 36.328125 -0.234375 C 29.609375 -1.640625 23.75 -4.0625 18.75 -7.5 C 13.75 -10.9375 9.800781 -15.507812 6.90625 -21.21875 C 4.019531 -26.925781 2.578125 -34 2.578125 -42.4375 C 2.578125 -50.09375 3.785156 -57.59375 6.203125 -64.9375 C 8.628906 -72.28125 12.691406 -78.804688 18.390625 -84.515625 C 24.097656 -90.222656 31.757812 -94.796875 41.375 -98.234375 C 50.988281 -101.671875 62.984375 -103.390625 77.359375 -103.390625 C 92.992188 -103.390625 104.753906 -100.96875 112.640625 -96.125 C 120.535156 -91.28125 124.484375 -83.695312 124.484375 -73.375 C 124.484375 -69.15625 123.859375 -64.582031 122.609375 -59.65625 C 121.359375 -54.738281 119.484375 -50.5625 116.984375 -47.125 Z M 82.28125 -75.015625 C 82.28125 -79.859375 81.5 -83.140625 79.9375 -84.859375 C 78.375 -86.578125 76.5 -87.4375 74.3125 -87.4375 C 71.8125 -87.4375 69.503906 -86.613281 67.390625 -84.96875 C 65.285156 -83.332031 63.375 -81.144531 61.65625 -78.40625 C 59.9375 -75.675781 58.375 -72.550781 56.96875 -69.03125 C 55.5625 -65.519531 54.390625 -61.8125 53.453125 -57.90625 L 80.171875 -57.90625 C 80.484375 -59.78125 80.796875 -61.734375 81.109375 -63.765625 C 81.421875 -65.484375 81.691406 -67.359375 81.921875 -69.390625 C 82.160156 -71.421875 82.28125 -73.296875 82.28125 -75.015625 Z M 82.28125 -75.015625 " />
      </g>
    </g>
    <g style="fill:#00bf63;fill-opacity:0.4;">
      <g transform="translate(1242.646679, 496.506801)">
        <path style="stroke:none" d="M 8.671875 -100.8125 L 58.375 -100.8125 L 67.984375 -31.890625 L 102.21875 -100.8125 L 127.0625 -100.8125 L 73.84375 0 L 24.84375 0 Z M 8.671875 -100.8125 " />
      </g>
    </g>
    <g style="fill:#00bf63;fill-opacity:1;">
      <g transform="translate(102.266282, 485.514818)">
        <path style="stroke:none" d="M 96.359375 -151.21875 C 109.796875 -151.21875 120.691406 -149.492188 129.046875 -146.046875 C 137.410156 -142.609375 144.019531 -137.296875 148.875 -130.109375 C 152 -125.265625 154.421875 -119.796875 156.140625 -113.703125 C 157.859375 -107.609375 158.71875 -100.578125 158.71875 -92.609375 C 158.71875 -85.722656 158.09375 -78.84375 156.84375 -71.96875 C 155.59375 -65.09375 153.832031 -58.488281 151.5625 -52.15625 C 149.300781 -45.832031 146.566406 -39.894531 143.359375 -34.34375 C 140.148438 -28.789062 136.59375 -23.90625 132.6875 -19.6875 C 125.34375 -11.71875 116.863281 -6.128906 107.25 -2.921875 C 97.644531 0.273438 85.804688 1.875 71.734375 1.875 C 58.140625 1.875 47.195312 0.46875 38.90625 -2.34375 C 30.625 -5.15625 24.0625 -9.6875 19.21875 -15.9375 C 15.78125 -20.3125 13.082031 -25.859375 11.125 -32.578125 C 9.175781 -39.304688 8.203125 -47.75 8.203125 -57.90625 C 8.203125 -75.25 11.285156 -90.757812 17.453125 -104.4375 C 23.628906 -118.113281 32.425781 -128.9375 43.84375 -136.90625 C 50.71875 -141.75 58.375 -145.34375 66.8125 -147.6875 C 75.25 -150.039062 85.097656 -151.21875 96.359375 -151.21875 Z M 69.859375 -14.53125 C 73.453125 -14.53125 76.847656 -16.128906 80.046875 -19.328125 C 83.253906 -22.535156 86.226562 -26.835938 88.96875 -32.234375 C 91.707031 -37.628906 94.207031 -43.765625 96.46875 -50.640625 C 98.738281 -57.515625 100.65625 -64.625 102.21875 -71.96875 C 103.78125 -79.3125 104.988281 -86.617188 105.84375 -93.890625 C 106.707031 -101.160156 107.140625 -107.765625 107.140625 -113.703125 C 107.140625 -121.828125 106.316406 -127.410156 104.671875 -130.453125 C 103.035156 -133.503906 100.65625 -135.03125 97.53125 -135.03125 C 93.9375 -135.03125 90.492188 -133.46875 87.203125 -130.34375 C 83.921875 -127.21875 80.832031 -123.035156 77.9375 -117.796875 C 75.050781 -112.566406 72.472656 -106.550781 70.203125 -99.75 C 67.941406 -92.957031 65.988281 -85.960938 64.34375 -78.765625 C 62.707031 -71.578125 61.457031 -64.46875 60.59375 -57.4375 C 59.738281 -50.40625 59.3125 -43.921875 59.3125 -37.984375 C 59.3125 -29.066406 60.285156 -22.925781 62.234375 -19.5625 C 64.191406 -16.207031 66.734375 -14.53125 69.859375 -14.53125 Z M 69.859375 -14.53125 " />
      </g>
    </g>
    <g style="fill:#00bf63;fill-opacity:1;">
      <g transform="translate(296.609537, 485.514818)">
        <path style="stroke:none" d="M 71.96875 -71.265625 C 72.125 -72.046875 72.28125 -72.828125 72.4375 -73.609375 C 72.59375 -74.390625 72.671875 -75.25 72.671875 -76.1875 C 72.671875 -79 72.160156 -81.613281 71.140625 -84.03125 C 70.128906 -86.457031 68.140625 -87.671875 65.171875 -87.671875 C 62.515625 -87.671875 59.859375 -86.535156 57.203125 -84.265625 C 54.546875 -82.003906 53.21875 -79 53.21875 -75.25 C 53.21875 -72.75 53.878906 -70.753906 55.203125 -69.265625 C 56.535156 -67.785156 58.296875 -66.578125 60.484375 -65.640625 C 62.671875 -64.703125 65.128906 -63.921875 67.859375 -63.296875 C 70.597656 -62.671875 73.296875 -62.046875 75.953125 -61.421875 C 79.703125 -60.484375 83.257812 -59.347656 86.625 -58.015625 C 89.988281 -56.691406 93 -54.9375 95.65625 -52.75 C 98.3125 -50.5625 100.421875 -47.863281 101.984375 -44.65625 C 103.546875 -41.457031 104.328125 -37.515625 104.328125 -32.828125 C 104.328125 -26.253906 102.800781 -20.738281 99.75 -16.28125 C 96.707031 -11.832031 92.488281 -8.238281 87.09375 -5.5 C 81.695312 -2.769531 75.363281 -0.859375 68.09375 0.234375 C 60.832031 1.328125 53.0625 1.875 44.78125 1.875 C 32.113281 1.875 21.640625 0.9375 13.359375 -0.9375 C 5.078125 -2.8125 -0.703125 -4.609375 -3.984375 -6.328125 L 0.9375 -29.78125 L 32.59375 -29.78125 C 32.4375 -28.988281 32.359375 -28.238281 32.359375 -27.53125 C 32.359375 -26.832031 32.359375 -26.09375 32.359375 -25.3125 C 32.359375 -21.71875 33.175781 -18.863281 34.8125 -16.75 C 36.457031 -14.644531 39.3125 -13.59375 43.375 -13.59375 C 47.90625 -13.59375 51.144531 -14.878906 53.09375 -17.453125 C 55.050781 -20.035156 56.03125 -22.421875 56.03125 -24.609375 C 56.03125 -26.796875 55.207031 -28.710938 53.5625 -30.359375 C 51.925781 -32.003906 49.859375 -33.410156 47.359375 -34.578125 C 44.859375 -35.753906 42.082031 -36.769531 39.03125 -37.625 C 35.988281 -38.488281 33.0625 -39.3125 30.25 -40.09375 C 28.207031 -40.5625 25.894531 -41.34375 23.3125 -42.4375 C 20.738281 -43.53125 18.28125 -45.09375 15.9375 -47.125 C 13.59375 -49.15625 11.640625 -51.769531 10.078125 -54.96875 C 8.515625 -58.175781 7.734375 -62.203125 7.734375 -67.046875 C 7.734375 -73.921875 9.410156 -79.664062 12.765625 -84.28125 C 16.128906 -88.894531 20.507812 -92.609375 25.90625 -95.421875 C 31.300781 -98.234375 37.394531 -100.265625 44.1875 -101.515625 C 50.988281 -102.765625 57.828125 -103.390625 64.703125 -103.390625 C 73.296875 -103.390625 81.421875 -102.609375 89.078125 -101.046875 C 96.742188 -99.484375 103 -97.453125 107.84375 -94.953125 L 102.453125 -71.265625 Z M 71.96875 -71.265625 " />
      </g>
    </g>
    <g style="fill:#00bf63;fill-opacity:1;">
      <g transform="translate(442.1912, 485.514818)">
        <path style="stroke:none" d="M 83.21875 -67.984375 L 143.9375 -67.984375 L 130.34375 0 L 102.6875 0 L 98.234375 -15 L 97.296875 -15 C 93.234375 -10.3125 88.425781 -6.328125 82.875 -3.046875 C 77.320312 0.234375 70.09375 1.875 61.1875 1.875 C 54.3125 1.875 47.707031 0.742188 41.375 -1.515625 C 35.050781 -3.785156 29.425781 -7.378906 24.5 -12.296875 C 19.570312 -17.222656 15.625 -23.671875 12.65625 -31.640625 C 9.6875 -39.617188 8.203125 -49.234375 8.203125 -60.484375 C 8.203125 -72.671875 10.078125 -84.234375 13.828125 -95.171875 C 17.578125 -106.117188 23.203125 -115.769531 30.703125 -124.125 C 38.210938 -132.488281 47.59375 -139.09375 58.84375 -143.9375 C 70.09375 -148.789062 83.222656 -151.21875 98.234375 -151.21875 C 109.796875 -151.21875 119.875 -149.882812 128.46875 -147.21875 C 137.0625 -144.5625 145.191406 -141.59375 152.859375 -138.3125 L 143.9375 -92.84375 L 104.328125 -92.84375 C 104.484375 -94.5625 104.71875 -96.59375 105.03125 -98.9375 C 105.34375 -101.28125 105.578125 -103.738281 105.734375 -106.3125 C 105.890625 -108.894531 106.046875 -111.4375 106.203125 -113.9375 C 106.359375 -116.4375 106.4375 -118.625 106.4375 -120.5 C 106.4375 -121.75 106.359375 -123.191406 106.203125 -124.828125 C 106.046875 -126.472656 105.65625 -128.078125 105.03125 -129.640625 C 104.40625 -131.203125 103.46875 -132.488281 102.21875 -133.5 C 100.96875 -134.519531 99.171875 -135.03125 96.828125 -135.03125 C 92.765625 -135.03125 89.050781 -133.347656 85.6875 -129.984375 C 82.320312 -126.628906 79.3125 -122.175781 76.65625 -116.625 C 74 -111.082031 71.691406 -104.789062 69.734375 -97.75 C 67.785156 -90.71875 66.144531 -83.566406 64.8125 -76.296875 C 63.488281 -69.035156 62.472656 -61.925781 61.765625 -54.96875 C 61.066406 -48.019531 60.71875 -41.96875 60.71875 -36.8125 C 60.71875 -35.25 60.796875 -33.289062 60.953125 -30.9375 C 61.109375 -28.59375 61.613281 -26.285156 62.46875 -24.015625 C 63.332031 -21.753906 64.582031 -19.800781 66.21875 -18.15625 C 67.863281 -16.519531 70.25 -15.703125 73.375 -15.703125 C 78.53125 -15.703125 83.53125 -18.515625 88.375 -24.140625 C 93.226562 -29.773438 96.90625 -39.15625 99.40625 -52.28125 L 79.703125 -52.28125 Z M 83.21875 -67.984375 " />
      </g>
    </g>
    <g style="fill:#00bf63;fill-opacity:1;">
      <g transform="translate(626.453981, 485.514818)">
        <path style="stroke:none" d="M 16.875 -92.140625 C 24.84375 -96.046875 33.007812 -98.894531 41.375 -100.6875 C 49.738281 -102.488281 59.078125 -103.390625 69.390625 -103.390625 C 79.390625 -103.390625 87.671875 -102.609375 94.234375 -101.046875 C 100.804688 -99.484375 106.046875 -97.21875 109.953125 -94.25 C 113.859375 -91.28125 116.59375 -87.757812 118.15625 -83.6875 C 119.71875 -79.625 120.5 -75.015625 120.5 -69.859375 C 120.5 -66.890625 120.300781 -63.6875 119.90625 -60.25 C 119.519531 -56.8125 119.09375 -53.921875 118.625 -51.578125 L 107.609375 0 L 69.859375 0 L 65.640625 -15 L 64.234375 -15 C 59.234375 -9.53125 53.410156 -5.347656 46.765625 -2.453125 C 40.128906 0.429688 33.523438 1.875 26.953125 1.875 C 23.203125 1.875 19.53125 1.328125 15.9375 0.234375 C 12.34375 -0.859375 9.140625 -2.535156 6.328125 -4.796875 C 3.515625 -7.066406 1.25 -9.957031 -0.46875 -13.46875 C -2.1875 -16.988281 -3.046875 -21.25 -3.046875 -26.25 C -3.046875 -34.382812 -0.820312 -40.832031 3.625 -45.59375 C 8.082031 -50.363281 13.945312 -53.957031 21.21875 -56.375 C 28.488281 -58.800781 36.691406 -60.328125 45.828125 -60.953125 C 54.972656 -61.578125 64.15625 -61.890625 73.375 -61.890625 C 73.6875 -63.453125 74.078125 -65.675781 74.546875 -68.5625 C 75.015625 -71.457031 75.25 -74 75.25 -76.1875 C 75.25 -79 74.503906 -81.613281 73.015625 -84.03125 C 71.535156 -86.457031 68.453125 -87.671875 63.765625 -87.671875 C 58.296875 -87.671875 54.269531 -86.066406 51.6875 -82.859375 C 49.113281 -79.660156 47.4375 -75.796875 46.65625 -71.265625 L 12.421875 -71.265625 Z M 70.796875 -50.875 L 66.578125 -50.875 C 62.046875 -50.875 58.175781 -50.285156 54.96875 -49.109375 C 51.769531 -47.941406 49.191406 -46.421875 47.234375 -44.546875 C 45.285156 -42.671875 43.84375 -40.5625 42.90625 -38.21875 C 41.96875 -35.875 41.5 -33.53125 41.5 -31.1875 C 41.5 -27.425781 42.472656 -24.609375 44.421875 -22.734375 C 46.378906 -20.859375 48.6875 -19.921875 51.34375 -19.921875 C 54.625 -19.921875 57.863281 -21.09375 61.0625 -23.4375 C 64.269531 -25.78125 66.265625 -28.910156 67.046875 -32.828125 Z M 70.796875 -50.875 " />
      </g>
    </g>
    <g style="fill:#00bf63;fill-opacity:1;">
      <g transform="translate(789.617922, 485.514818)">
        <path style="stroke:none" d="M 47.59375 -20.625 C 47.59375 -17.03125 46.847656 -13.828125 45.359375 -11.015625 C 43.878906 -8.203125 41.925781 -5.859375 39.5 -3.984375 C 37.082031 -2.109375 34.304688 -0.664062 31.171875 0.34375 C 28.046875 1.363281 24.765625 1.875 21.328125 1.875 C 15.390625 1.875 10.347656 0.273438 6.203125 -2.921875 C 2.066406 -6.128906 0 -11.171875 0 -18.046875 C 0 -21.640625 0.703125 -24.84375 2.109375 -27.65625 C 3.515625 -30.476562 5.390625 -32.828125 7.734375 -34.703125 C 10.078125 -36.578125 12.769531 -38.019531 15.8125 -39.03125 C 18.863281 -40.050781 22.03125 -40.5625 25.3125 -40.5625 C 31.726562 -40.5625 37.046875 -38.957031 41.265625 -35.75 C 45.484375 -32.550781 47.59375 -27.507812 47.59375 -20.625 Z M 47.59375 -20.625 " />
      </g>
    </g>
    <g style="fill:#00bf63;fill-opacity:1;">
      <g transform="translate(887.610104, 485.514818)">
        <path style="stroke:none" d="M 97.53125 -157.546875 L 145.578125 -157.546875 L 112.0625 0 L 74.078125 0 L 69.859375 -15 L 68.21875 -15 C 67.28125 -13.59375 65.832031 -11.910156 63.875 -9.953125 C 61.925781 -8.003906 59.46875 -6.128906 56.5 -4.328125 C 53.53125 -2.535156 50.015625 -1.054688 45.953125 0.109375 C 41.890625 1.285156 37.203125 1.875 31.890625 1.875 C 26.410156 1.875 21.753906 1.054688 17.921875 -0.578125 C 14.097656 -2.222656 10.972656 -4.453125 8.546875 -7.265625 C 6.128906 -10.078125 4.375 -13.472656 3.28125 -17.453125 C 2.1875 -21.441406 1.640625 -25.785156 1.640625 -30.484375 C 1.640625 -32.515625 1.796875 -35.753906 2.109375 -40.203125 C 2.421875 -44.660156 3.160156 -49.582031 4.328125 -54.96875 C 5.503906 -60.363281 7.222656 -65.910156 9.484375 -71.609375 C 11.753906 -77.316406 14.800781 -82.515625 18.625 -87.203125 C 22.457031 -91.898438 27.1875 -95.769531 32.8125 -98.8125 C 38.445312 -101.863281 45.25 -103.390625 53.21875 -103.390625 C 55.71875 -103.390625 58.375 -103.15625 61.1875 -102.6875 C 64 -102.21875 66.691406 -101.359375 69.265625 -100.109375 C 71.847656 -98.859375 74.15625 -97.0625 76.1875 -94.71875 C 78.21875 -92.375 79.703125 -89.320312 80.640625 -85.5625 L 82.28125 -85.5625 Z M 68.921875 -80.40625 C 65.171875 -80.40625 62.046875 -78.332031 59.546875 -74.1875 C 57.046875 -70.050781 55.015625 -65.25 53.453125 -59.78125 C 51.890625 -54.3125 50.753906 -48.84375 50.046875 -43.375 C 49.347656 -37.90625 49 -33.84375 49 -31.1875 C 49 -28.050781 49.46875 -25.425781 50.40625 -23.3125 C 51.34375 -21.207031 53.140625 -20.15625 55.796875 -20.15625 C 57.359375 -20.15625 58.878906 -20.503906 60.359375 -21.203125 C 61.847656 -21.910156 63.253906 -22.769531 64.578125 -23.78125 C 65.910156 -24.800781 67.046875 -25.859375 67.984375 -26.953125 C 68.921875 -28.046875 69.703125 -28.988281 70.328125 -29.78125 L 79.46875 -72.4375 C 78.375 -74.15625 76.925781 -75.910156 75.125 -77.703125 C 73.332031 -79.503906 71.265625 -80.40625 68.921875 -80.40625 Z M 68.921875 -80.40625 " />
      </g>
    </g>
    <g style="fill:#00bf63;fill-opacity:1;">
      <g transform="translate(1056.634819, 485.514818)">
        <path style="stroke:none" d="M 51.109375 -47.125 C 50.484375 -43.6875 50.050781 -40.40625 49.8125 -37.28125 C 49.582031 -34.15625 49.46875 -31.335938 49.46875 -28.828125 C 49.46875 -27.421875 49.546875 -25.859375 49.703125 -24.140625 C 49.859375 -22.421875 50.207031 -20.816406 50.75 -19.328125 C 51.300781 -17.847656 52.082031 -16.597656 53.09375 -15.578125 C 54.113281 -14.566406 55.5625 -14.0625 57.4375 -14.0625 C 58.84375 -14.0625 60.441406 -14.53125 62.234375 -15.46875 C 64.035156 -16.40625 65.832031 -17.734375 67.625 -19.453125 C 69.425781 -21.171875 71.144531 -23.28125 72.78125 -25.78125 C 74.425781 -28.289062 75.71875 -31.109375 76.65625 -34.234375 L 115.109375 -34.234375 L 109.015625 -9.140625 C 105.890625 -7.109375 102.296875 -5.390625 98.234375 -3.984375 C 94.171875 -2.578125 89.867188 -1.441406 85.328125 -0.578125 C 80.796875 0.273438 76.1875 0.894531 71.5 1.28125 C 66.8125 1.675781 62.359375 1.875 58.140625 1.875 C 50.328125 1.875 43.054688 1.171875 36.328125 -0.234375 C 29.609375 -1.640625 23.75 -4.0625 18.75 -7.5 C 13.75 -10.9375 9.800781 -15.507812 6.90625 -21.21875 C 4.019531 -26.925781 2.578125 -34 2.578125 -42.4375 C 2.578125 -50.09375 3.785156 -57.59375 6.203125 -64.9375 C 8.628906 -72.28125 12.691406 -78.804688 18.390625 -84.515625 C 24.097656 -90.222656 31.757812 -94.796875 41.375 -98.234375 C 50.988281 -101.671875 62.984375 -103.390625 77.359375 -103.390625 C 92.992188 -103.390625 104.753906 -100.96875 112.640625 -96.125 C 120.535156 -91.28125 124.484375 -83.695312 124.484375 -73.375 C 124.484375 -69.15625 123.859375 -64.582031 122.609375 -59.65625 C 121.359375 -54.738281 119.484375 -50.5625 116.984375 -47.125 Z M 82.28125 -75.015625 C 82.28125 -79.859375 81.5 -83.140625 79.9375 -84.859375 C 78.375 -86.578125 76.5 -87.4375 74.3125 -87.4375 C 71.8125 -87.4375 69.503906 -86.613281 67.390625 -84.96875 C 65.285156 -83.332031 63.375 -81.144531 61.65625 -78.40625 C 59.9375 -75.675781 58.375 -72.550781 56.96875 -69.03125 C 55.5625 -65.519531 54.390625 -61.8125 53.453125 -57.90625 L 80.171875 -57.90625 C 80.484375 -59.78125 80.796875 -61.734375 81.109375 -63.765625 C 81.421875 -65.484375 81.691406 -67.359375 81.921875 -69.390625 C 82.160156 -71.421875 82.28125 -73.296875 82.28125 -75.015625 Z M 82.28125 -75.015625 " />
      </g>
    </g>
    <g style="fill:#00bf63;fill-opacity:1;">
      <g transform="translate(1216.751202, 485.514818)">
        <path style="stroke:none" d="M 8.671875 -100.8125 L 58.375 -100.8125 L 67.984375 -31.890625 L 102.21875 -100.8125 L 127.0625 -100.8125 L 73.84375 0 L 24.84375 0 Z M 8.671875 -100.8125 " />
      </g>
    </g>
  </g>
</svg>